<svg id="Layer_1" data-name="Layer 1" xmlns="http://www.w3.org/2000/svg" viewBox="0 0 1013 500"><defs><style>.cls-1{fill:#231f20}</style></defs><title>Artboard 6</title><path class="cls-1" d="M226.67 157.71q-2.58 6.48-9.86 11.88l-75.06 34q-19.75-9.43-41.85-17.8-11.61-4.59-23.62-8.37t-24.44-7Q57 162.57 62.64 152t9.72-20.25A116.32 116.32 0 0 1 122 142.73q23.49 10.94 46.17 34.42a63 63 0 0 0 7.29-3.24q7.56-4.32 7.56-9.45a19.35 19.35 0 0 0-2.7-10q-4.05-7.56-13.77-12.15L90.18 105.6a51.56 51.56 0 0 1-12.55-8.1A59.43 59.43 0 0 1 68 86.84a48.5 48.5 0 0 1-6.21-12.15 38.81 38.81 0 0 1-2.16-12.56 33 33 0 0 1 6.08-19.44q6.07-8.64 19.3-13.77l56.7-25.11q40 27.27 79.38 30.78L204.93 70q-30.51-3.78-50.76-13-20.25-9.45-37.8-28.08a13.07 13.07 0 0 0-5.4 1.22 21.8 21.8 0 0 0-5 3.1 15.07 15.07 0 0 0-3.65 4.32 9.93 9.93 0 0 0-1.32 4.86q0 4.86 4.32 10.8.27 1.08 2.43 2.7l26.73 12.69q8.64 4.32 18 8.78t19.3 9.31q23 11.34 40.5 21.06 3 3 5 5.27a52.92 52.92 0 0 1 3.37 4.18q8.64 12.69 8.64 25.11a42 42 0 0 1-2.62 15.39zm171.21-56.97q-21.15 16.2-53.15 16.2-12.47 0-20.88-2.43-10.58-3-29.28-13.5l.54 86.13 4.59 11.61h-59.4q2.43-4.59 5.4-31.05 1.35-13.23 2.16-29.43t.81-35.64q0-28.89-3-58.59c-.37-3.42-.72-7.15-1.08-11.2s-.91-8.6-1.62-13.64l-3.24-9.72c1.79.36 3.4.63 4.81.81l4.1.54A132.52 132.52 0 0 0 266 12.45a213.91 213.91 0 0 0 28.75-2.29q16.6-2.29 37.94-6.35 38.61 0 62.64 14.31t24 40.5q-.02 25.92-21.45 42.12zM359.83 31.4Q346.23 16.24 322 16.23a109.76 109.76 0 0 0-20.39 1.63c-.91.18-1.95.45-3.13.81s-2.49.72-3.94 1.08v58.5l2.71-1.63L300 75a23.84 23.84 0 0 1 9.51-3.25 17.5 17.5 0 0 1 9.49 2.57 13.78 13.78 0 0 1 5.71 8.26q-8.43 0-11.15 2.17c-1.82 1.44-2.72 3.79-2.72 7q0 6 6.53 10.29a26.86 26.86 0 0 0 15.23 4.33q17.12 0 28.55-14.35 10.09-12.41 10.1-27.02 0-20.6-11.42-33.6zm184.49 167.35l6.21-15.93V96.15h-62.36l-1.63 1.08q0 56.43-19.06 82.89-14.48 19.71-36.83 19.71a38.73 38.73 0 0 1-17.55-3.78q-8.66-4.86-8.64-13.23a19.3 19.3 0 0 1 4.59-13 15.16 15.16 0 0 1 12.15-5.4q7 0 11.07 7.56-3 0-6.48 3.78t-3.51 7.83a5.65 5.65 0 0 0 2.43 4.59 9 9 0 0 0 5.67 1.89q11.33 0 11.33-22.14 0-9.18-.4-17.95t-.67-14.45q0-36.18 8.64-60.48a90.56 90.56 0 0 1 22.14-34.56Q482.49 30 500.31 20.82l-.81-.82h-32.94a8.43 8.43 0 0 0-5.27 1.76 21 21 0 0 0-4.18 4.32 19 19 0 0 0-2.84 5.53 18 18 0 0 0-.94 5.4l.54 2.16-4.32.54q-7.29 0-11.07-4c-2.53-2.7-3.78-6.3-3.78-10.8a16.2 16.2 0 0 1 4.72-11.47 15.84 15.84 0 0 1 12-5h151.2l-3 7.29v167.09l3.51 15.93zM550.53 20l-9.45-.81q-24 0-38.88 18.63-14.85 18.09-14.85 43.74l2.43 2.16h57.78l3-1.08zm182.25 63.46q-7.31 0-11.62-3.51a11.26 11.26 0 0 1-4.32-9.18 6.93 6.93 0 0 1 3-5.94 9.7 9.7 0 0 1 5.67-2.16 15.06 15.06 0 0 1 6.49 1.89 14.79 14.79 0 0 1 3.78 2.16l5.41-1.08.54-4.59-44-34.56a32.66 32.66 0 0 0-5.13-.27 33.52 33.52 0 0 0-13.5 2.7 198.83 198.83 0 0 0-11.4 36.32 189.08 189.08 0 0 0-3.78 38.47q0 39.42 10.81 60.75 12.94 26.19 40.5 26.19 15.91 0 27.54-8.37 12.68-9.45 12.68-23.49a22.77 22.77 0 0 0-2.7-11.47q-2.7-4.73-9.18-10.13 7.56-10 20.79-10A21.56 21.56 0 0 1 779 132.6q6.19 5.4 6.21 16.74 0 21.87-19.71 35.91-19.78 14.31-49.5 14.31-45.9 0-71.54-19.17-28.63-21.87-28.63-67.77a120.91 120.91 0 0 1 10-47.79 147.85 147.85 0 0 1 8.23-16.6A194.78 194.78 0 0 1 645 31.35q9.44-12.69 10.25-12.69l25.12.54a126.61 126.61 0 0 0 40.22-6.75 109 109 0 0 0 17.29-7 272.9 272.9 0 0 0 56.16 35.64zm221.8 75.74A47.75 47.75 0 0 0 952 175a54.51 54.51 0 0 0 3 17.28 23.88 23.88 0 0 0 3 6.48H801.62l3.78-9.76V17.31l-3.78-8.91h157.14A176.86 176.86 0 0 0 946.88 25q-5.94 9.32-11.88 20.66Q921.77 71 921.77 83.73q0 7.83 2.84 12.56a8.83 8.83 0 0 0 8 4.72 10.51 10.51 0 0 0 8.37-3.78 25.58 25.58 0 0 0 3.78-7q7.29 7 7.29 16.2a13.85 13.85 0 0 1-4.86 10.8 16.2 16.2 0 0 1-11.07 4.32q-10.26 0-16.2-6.75-7.29-8.1-8.91-25.38h-55.39v94.23h50.22l-.81-4q0-12.42 10.53-23.76 12.15-13 29.43-13a77.46 77.46 0 0 1 10 .54q4 .54 7.29 1.08a58.94 58.94 0 0 0-7.7 14.69zm-99-136.76V77h55.89a148.42 148.42 0 0 1 23.22-54.54zM186.17 360a46.65 46.65 0 0 1-6.75.67q-18.63 0-30.78-12.15t-12.15-31.86H123v171.21l6.21 11.88H64.67l6.48-11.88V316.69H55.76Q55.76 338 45 349.5T16.34 361c-4.51 0-7.88-.09-10.13-.27a29.14 29.14 0 0 1-6.07-1.08q1.88-2.7 3.24-4.86a30.11 30.11 0 0 0 2.16-4.05 55.28 55.28 0 0 0 5.67-24.57 59 59 0 0 0-.68-7.56q-.67-4.86-1.48-9.18h177.66a8.88 8.88 0 0 0-.27 2.16 3.15 3.15 0 0 1-.27 1.35q-1.08 5.4-1.49 8.78a46.09 46.09 0 0 0-.4 5q0 7.56 4.59 20.79a28.52 28.52 0 0 0 1.75 4.86q1.22 2.7 2.84 6.48-2.98.5-7.29 1.15zm196.69 66.18a92.29 92.29 0 0 1-5.8 17.14 99.35 99.35 0 0 1-9.19 16.07 86.15 86.15 0 0 1-12.14 13.9l-63.45 32.13q-10.81-2.7-19-5.26t-14.45-4.73q-27.53-11.61-44.27-30-22.15-24.57-22.15-60.75 0-16.47 7.16-34.15a94.08 94.08 0 0 1 20.92-31.46l68.05-33.21q43.19 10 69.93 37.53 26.44 27.27 26.45 65.88a75 75 0 0 1-2.06 16.91zM343 385q-15.93-14.31-48.33-25.38-8.64-3-23.49-7t-36.44-9.45q-9.74 7.29-16.07 20.39a62.65 62.65 0 0 0-6.34 27.67q0 22.95 23.75 41 19.44 14.85 52.39 25.92a241 241 0 0 0 25.37 7.29q13 3 26.74 5.13a37.52 37.52 0 0 0 16.74-16.87q5.38-10.94 5.4-25.52.03-25.9-19.72-43.18zm278.67 101q-5.67 8.62-5.67 14.83l.54 4.59a56.16 56.16 0 0 0-11.88-5.67H484.24a106.51 106.51 0 0 0 4.86-10 10.48 10.48 0 0 0 .54-1.35 14.82 14.82 0 0 1 .81-1.89V321a18 18 0 0 0-1.89-8.64 16.51 16.51 0 0 0-2.16-3h59.13q-15.39 46.75-15.39 92.64a352 352 0 0 0 2.43 42.93 378.4 378.4 0 0 0 8.91 43.2h47.79a43.61 43.61 0 0 1-4.46-8.64 27.74 27.74 0 0 1-1.75-10 20.45 20.45 0 0 1 4.18-12.42q4.18-5.67 13.1-9.18 2.7-3 5.53-6.48t5.81-7.83a34 34 0 0 0 8.1 14.85q6.21 6.21 23 17Q629 475.45 621.67 486zm179.14-25.8a48 48 0 0 0-2.56 15.8 54.51 54.51 0 0 0 3 17.28 23.88 23.88 0 0 0 3 6.48H647.86l3.78-9.72V318.31l-3.78-8.91H805a176.86 176.86 0 0 0-11.88 16.6q-5.94 9.32-11.88 20.65Q768 372 768 384.73q0 7.83 2.83 12.56a8.85 8.85 0 0 0 8 4.72 10.51 10.51 0 0 0 8.37-3.78 25.58 25.58 0 0 0 3.78-7q7.29 7 7.29 16.2a13.85 13.85 0 0 1-4.86 10.8 16.2 16.2 0 0 1-11.07 4.32q-10.26 0-16.2-6.75-7.29-8.1-8.91-25.38h-55.37v94.23h50.22l-.81-4.05q0-12.42 10.53-23.76 12.15-13 29.43-13a77.46 77.46 0 0 1 10 .54q4 .54 7.29 1.08a59.32 59.32 0 0 0-7.71 14.74zm-98.95-136.76V378h55.89A148.49 148.49 0 0 1 781 323.44zM1005.33 360a46.52 46.52 0 0 1-6.75.67q-18.63 0-30.78-12.15t-12.15-31.86h-13.5v171.21l6.21 11.88h-64.53l6.48-11.88V316.69h-15.39q0 21.33-10.8 32.81T835.5 361q-6.75 0-10.12-.27a29.36 29.36 0 0 1-6.08-1.08q1.89-2.7 3.24-4.86a30.11 30.11 0 0 0 2.16-4.05 55.28 55.28 0 0 0 5.67-24.57 58.59 58.59 0 0 0-.67-7.56q-.68-4.86-1.49-9.18h177.66a8.88 8.88 0 0 0-.27 2.16 3 3 0 0 1-.27 1.35q-1.08 5.4-1.48 8.78a46.73 46.73 0 0 0-.41 5q0 7.56 4.59 20.79a29.54 29.54 0 0 0 1.76 4.86q1.22 2.7 2.83 6.48-2.97.5-7.29 1.15z"/></svg>