<svg id="Layer_1" data-name="Layer 1" xmlns="http://www.w3.org/2000/svg" viewBox="0 0 774 506"><defs><style>.cls-1{fill:#006838}</style></defs><title>Artboard 4</title><path class="cls-1" d="M28.15 129.35V135q0 16 10.64 16h2.8l2.8-4.76q1.39 8.4 5.74 12.32t12.46 3.92A37.87 37.87 0 0 0 75.75 160a38.61 38.61 0 0 0 11.34-6.43 34.18 34.18 0 0 0 7.84-9.09 20.73 20.73 0 0 0 2.94-10.62 11.76 11.76 0 0 0-1.4-6q-1.41-2.37-5.46-4A51.46 51.46 0 0 0 79.67 121q-7.29-1.11-18.76-2.24l4.48-8.94h-6.16a135.27 135.27 0 0 1-18.9-1.12 32.61 32.61 0 0 1-12.46-4 20.61 20.61 0 0 1-7.42-7.84 37 37 0 0 1-3.78-12.16l-7.56 9.18a42.44 42.44 0 0 1-6.86-10.49 29.29 29.29 0 0 1-2.1-11.61 56 56 0 0 1 4.9-22.08 72.4 72.4 0 0 1 13-20.42 65.17 65.17 0 0 1 7.7-7.55 71.88 71.88 0 0 1 9-6.3 94 94 0 0 1 11.06-5.6q6.15-2.65 14.28-5.46l5-1.68-10.64 21q19.9-9.42 35.55-9.42 19.59 0 24.64 16.91l3.36-5q17.67 8.6 17.67 29.82c0 1.3 0 2.61-.14 3.92s-.24 3-.42 5l-25.76 5.88q-.28-7.85-2.1-11.9a18.76 18.76 0 0 0-6.58-7.42l-3.36 5-5 2.52Q92 41.7 77.71 41.71A32 32 0 0 0 66.23 44a41.75 41.75 0 0 0-10.5 5.74 32 32 0 0 0-7.56 8 15.84 15.84 0 0 0-2.94 8.68 11.26 11.26 0 0 0 1.82 6A11 11 0 0 0 52 76.71a28.08 28.08 0 0 0 8.4 2q5.31.56 16.8.84h5.32l-4.2 7.56 3.36.28 12.74 1.4a82.36 82.36 0 0 1 9 1.4c2.52.56 4.66 1.12 6.44 1.68a33.58 33.58 0 0 1 4.9 2q10.92 5.31 10.92 17.92v2a14.85 14.85 0 0 1-.28 2.8l9.24-12.32a53.64 53.64 0 0 1 7.14 12 32.55 32.55 0 0 1 2.1 12 54.47 54.47 0 0 1-2.38 15.54 74.54 74.54 0 0 1-6.58 15.4A80.91 80.91 0 0 1 124.89 173a69.68 69.68 0 0 1-12.74 11.2 68.46 68.46 0 0 1-15 7.42A107.82 107.82 0 0 1 77.43 196l10.92-19.88q-12.6 7.56-21 10.64a47.87 47.87 0 0 1-16.52 3.08 36.34 36.34 0 0 1-15-2.94 42.26 42.26 0 0 1-13-9.66q-11.49-3.09-16.38-10.36t-4.9-20.72v-4.48a34.36 34.36 0 0 1 .56-5.6zm5.18-87a24.82 24.82 0 0 0-6 16.24 17.7 17.7 0 0 0 .28 3.22A24 24 0 0 0 29 66.17l21-34.44q-10.66 3.36-16.67 10.64zM109.07 156a22 22 0 0 0 4.76-14.28 21.27 21.27 0 0 0-1.12-5.88L94 166.59q10.3-4.77 15.07-10.59zm67.48-81.81L147.43 114l19.32-98 50.12-12.93-10.64 20.72 3.36-1a8.6 8.6 0 0 0 2.24-1q6.43-2.25 11.06-4.06c3.08-1.22 5.46-2.1 7.14-2.66a53.75 53.75 0 0 1 8.4-2.1 52.33 52.33 0 0 1 8.68-.7q7.27 0 11.76 2.8t9.24 9.24q12 3.91 16.94 10.36T290 53.19a71 71 0 0 1-3.78 23.1 74.29 74.29 0 0 1-10.78 20.44 78.94 78.94 0 0 1-16.52 16.38 71.4 71.4 0 0 1-21.28 10.64L223.87 128q-3.36 1.11-5.88 2.24a51.9 51.9 0 0 0-6.16 3.36L201.47 184l-26.88 10 3.92-19-25.76 10.92zm5.32-9.19l20.44-33.88-13.16 4.48zm4.2 95.48l30.8-47.6-23.52 7.28zm22.4-70.56q15.39-3.93 22.4-9.52a37.1 37.1 0 0 0 10.22-12.74 33.77 33.77 0 0 0 4.06-15.26 12.7 12.7 0 0 0-3.36-9 10.65 10.65 0 0 0-8.12-3.64 33.18 33.18 0 0 0-6.16.7 71.52 71.52 0 0 0-8.12 2.1l-12.32 3.92-8.68 46.2zm21.28 10.64q5.59-2 9.38-3.5c2.52-1 4.66-2 6.44-2.8a30.79 30.79 0 0 0 4.62-2.66 29.92 29.92 0 0 0 3.64-3.08 29.77 29.77 0 0 0 7.28-9.94 27.64 27.64 0 0 0 2.8-11.62q0-6.16-3.08-9.8a11.24 11.24 0 0 0-8.4-3.92L223 103zm118.99-45.69L272 177h-1.4q2.81-5.32 4.48-8.68t4.76-9.8q3.92-8.13 8.54-18.06T296.1 124l11.76-25.76 2-3.92 35.24-79.49 27.44-6.16 1.12 5.33-6.44 10.36 23.52-5L398 82.87 411.74 63l10.08 87.08 13.44-19.6 6.44 55.16-28.56 6.16-2.52-24.64-5.88 11.2-7.84 2-3.08-30-42.56 9.52 9.24-16.52-29.4 6.72-14.28 34.16-27.44 5.88zm21.56 2.52l-28 65.8 31.92-7.28zM388.78 98l-21 33.88 23.8-5.32zm65.1-23.67a156.79 156.79 0 0 1 11.9-27 129.64 129.64 0 0 1 19.46-26 137.73 137.73 0 0 1 27.3-21.62L510 4.19q-4.2 8.4-8.26 16.1t-8.82 15.54q-4.77 7.83-10.08 16.38t-12 18.34q-8.4 12.32-14 20.3t-11.48 15.26a231.45 231.45 0 0 1 8.52-31.78zm123.9 102.06a75.37 75.37 0 0 1-45.08 14.28h-2a13.46 13.46 0 0 1-2.52-.28l6.44-12.88a48.92 48.92 0 0 1-8.82 2.94 38.38 38.38 0 0 1-7.42.7q-23.52 0-33.88-28.56l-7.84 9.52a113.89 113.89 0 0 1-7.56-21.7 98.32 98.32 0 0 1-2.24-21.7 115.92 115.92 0 0 1 7.42-40.88 128.9 128.9 0 0 1 19.6-35.28 99.7 99.7 0 0 1 28-24.64 63.86 63.86 0 0 1 32.62-9.24 44.63 44.63 0 0 1 8.4.7 69.11 69.11 0 0 1 8.68 2.38l-2.52 6.44h1.68q17.36 0 27 11.06t9.66 30.66l12-14.84a74.53 74.53 0 0 1 5 16.1 106.23 106.23 0 0 1 1.4 18.62v4.76l-26.6 3.08a54.44 54.44 0 0 0-1.4-9.1 43.64 43.64 0 0 0-2.24-6l-14.28 2.8a89.6 89.6 0 0 0-1.4-11.9 34.94 34.94 0 0 0-2.24-6.86q-5.61-10.92-17.08-10.92a40 40 0 0 0-6.72.84l2.8-5a20.14 20.14 0 0 0-13.44-5.32q-9.24 0-18.34 6.72a66.57 66.57 0 0 0-16.24 17.78 100.88 100.88 0 0 0-11.48 25.06 95.68 95.68 0 0 0-4.34 28.56 77 77 0 0 0 .7 11.34 46.1 46.1 0 0 0 2.94 10.22l12.6-17.64a17.82 17.82 0 0 1-.14 2.38 10.43 10.43 0 0 0-.14 1.54q0 14.28 6.44 23.1t16.66 8.77a28.11 28.11 0 0 0 10.08-1.82 49.67 49.67 0 0 0 10.36-5.74l-10.64 18.2q13.44 0 23.24-6.3t18.76-21.14l26.6-2.24q-12.6 27.14-32.48 41.43zM645.54 16l54.6-10.64-7.84 14.79 65.52-13.44-3.36 16.52c2.42-1.12 4.48-2 6.16-2.66s3.22-1.22 4.62-1.68 2.8-.89 4.2-1.26 3-.75 4.9-1.12l-4.48 26.88-15.12 3.08a41.94 41.94 0 0 0-8.82 2.53 100.06 100.06 0 0 0-10.5 5.32l11.48-19-62.16 12.6-5.6 31.08 46.48-9.24-10.92 18.15q4.75-2 9.1-3.36a82.43 82.43 0 0 1 8.26-2.24l22.68-4.76-4.2 26-26.88 5.6-2.8.56a93.08 93.08 0 0 0-24.36 8.12l10.92-17.64-33.32 6.44-7 41.16 12-2.24 12.9-20.4c-.94 2.42-1.68 4.62-2.24 6.58s-1.12 4-1.68 6-1.08 4.38-1.54 7-1.08 5.69-1.82 9.24l-.56 2.8L742.42 145l-10.36 17.36 2.8-1.12q7-2.25 12.6-3.64l21-4.76-4.76 28-29.4 6.16c-2.62.56-5.74 1.3-9.38 2.24s-7 1.86-10.22 2.8l9.24-16.8L671 185.91c-3.74.74-7 1.44-9.8 2.1s-6.07 1.54-9.8 2.66l9.52-16-26.6 5.6 11.76-64.12q1.39-9 3.64-18.06t5-18.34l-27.16 38.64zm37.8 18.2l-14.84 3.31-5 28.56z"/><path class="cls-1" d="M283.08 301.07a109.12 109.12 0 0 1 3.22-10.78q2.1-6 5.46-14.14l-33.6 50.68 23-120.4q-3.36 1.11-5.88 2.1t-5 2.24a55 55 0 0 0-5.32 3.08q-2.79 1.82-6.72 4.62l5-22.4-37 7.56 3.64-27.16 45.65-8.68c3.17-.56 6.11-1.22 8.81-2a63 63 0 0 0 7.42-2.52 48.79 48.79 0 0 1-1.68 5.88 44.5 44.5 0 0 1-2 4.48l-2.8 5.88c-.18.37-.37.79-.56 1.26s-.46 1.16-.84 2.1a60.72 60.72 0 0 1 9.53-4.62 67.46 67.46 0 0 1 9.51-2.66l45.36-9.52-4.2 20.72a12.25 12.25 0 0 0 1-1.12 2.57 2.57 0 0 1 1-.84 40.79 40.79 0 0 1 4.62-4.48 21.07 21.07 0 0 1 4.2-2.66 21.44 21.44 0 0 1 4.76-1.54 48 48 0 0 1 6.58-.84l-4.76 27.16-17.36 3.64a30.32 30.32 0 0 0-7.42 2.24 25 25 0 0 0-6 4.2l10.92-21q-3.64 1.4-5.89 2.1c-1.49.46-3.26 1-5.32 1.54q-2.52.84-5.87 1.68L320 198l-12.88 2.8-13.44 72.8 32.48-53.2a146.29 146.29 0 0 0-4.9 14.42q-2.1 7.41-3.5 14.7l-16.24 85.12-26 5.6zm85.4-13.86a123.35 123.35 0 0 1-.84-14.42A110.24 110.24 0 0 1 370.3 249a139.24 139.24 0 0 1 7.42-23.52 127.08 127.08 0 0 1 11.76-22A137.39 137.39 0 0 1 405.16 184a80.88 80.88 0 0 1 25.06-17.92q13.3-5.88 30.94-6.44L453.32 174a70.2 70.2 0 0 1 10.36-3 45.77 45.77 0 0 1 8.12-.7q23.24 0 36.4 24.36l5-6.44a71.23 71.23 0 0 1 11.34 21.28 82.71 82.71 0 0 1 3.5 25.2 116.4 116.4 0 0 1-.84 14.14 93.29 93.29 0 0 1-2.8 13.86q-2 7-4.9 14.56a169.73 169.73 0 0 1-7.42 16.24l35-51.52q-2.25 21.56-6.86 36.68a132.63 132.63 0 0 1-12.74 28.84 114.54 114.54 0 0 1-20.44 25.76q-11.47 10.64-30 21l26-46.48q-16.25 21-30.94 30.38t-30.66 9.38a47.1 47.1 0 0 1-12.06-1.54 53.18 53.18 0 0 1-12.18-5.18l1.68-3.64a45.36 45.36 0 0 1-15.26-4.76 33.2 33.2 0 0 1-10.78-10.08 51.94 51.94 0 0 1-9.52-30.8v-2.8l-11.76 15.68q-2.23-10.07-3.08-17.21zm77-99.54a58.49 58.49 0 0 0-18.9 7.7 54.19 54.19 0 0 0-14.42 14.14 107 107 0 0 0-13.3 27.49 95.55 95.55 0 0 0-5.18 30v2.24a23.86 23.86 0 0 0 .28 3.36zm-12.32 124a23.07 23.07 0 0 0 8 5.46 25.66 25.66 0 0 0 9.1 1.54q9.24 0 18.2-6.58a68.33 68.33 0 0 0 16.1-17.22 99.57 99.57 0 0 0 11.62-24.08 86.15 86.15 0 0 0 4.48-27.44 66.84 66.84 0 0 0-1.54-14.84 72 72 0 0 0-4.9-14L483 231.63q-.57-16.8-5.6-24.22T461.16 200q-9 0-17.78 6.72a70 70 0 0 0-16 17.64 100.06 100.06 0 0 0-11.48 24.5 89 89 0 0 0-4.34 27.3q0 31.64 23.24 32.48zm-239.81 34q-7.29 12.31-13.44 21.42t-13.16 18.06l8.12-54.88 27.44-7.27v3.92l-6.16 13.44 25.48-6.72-17.36 102.2 26.6-40-12.6 75.88 35.28-8.4-8.12 16.8 47.6-11.2-3.36 27.44L227 511.71l9.24-17.08-50.4 11.76 9.8-55.44-26.88 42.56z"/><path class="cls-1" d="M316.54 332l54.6-10.64-7.84 14.84 65.52-13.44-3.36 16.52c2.43-1.12 4.49-2 6.16-2.66s3.22-1.22 4.62-1.68 2.8-.89 4.21-1.26 3-.75 4.89-1.12l-4.48 26.88-15.12 3.08a42.29 42.29 0 0 0-8.82 2.52 102.06 102.06 0 0 0-10.5 5.32l11.48-19-62.16 12.6-5.6 31.04 46.48-9.24-10.92 18.2q4.77-2 9.1-3.36a83.91 83.91 0 0 1 8.26-2.24l22.68-4.76-4.2 26-26.88 5.6-2.8.56a93.33 93.33 0 0 0-24.36 8.12l10.92-17.64-33.31 6.44-7 41.16 12-2.24L363 441.15c-.94 2.42-1.69 4.62-2.25 6.58s-1.12 4-1.67 6-1.08 4.38-1.55 7-1.07 5.69-1.82 9.24l-.55 2.8L413.42 461l-10.36 17.36 2.8-1.12q7-2.25 12.6-3.64l21-4.76-4.76 28-29.4 6.16c-2.61.56-5.74 1.3-9.38 2.24s-7 1.86-10.22 2.8l9.25-16.8L342 501.91c-3.74.74-7 1.44-9.81 2.1s-6.06 1.54-9.8 2.66l9.53-16-26.61 5.6 11.76-64.12q1.41-9 3.64-18.06t5-18.34l-27.16 38.64zm37.8 18.2l-14.84 3.36-5 28.56zm170.52 108.87a106.47 106.47 0 0 1 3.22-10.78q2.1-6 5.46-14.14l-33.6 50.68 23-120.4q-3.36 1.11-5.88 2.1t-5 2.24a52.73 52.73 0 0 0-5.32 3.08q-2.81 1.81-6.72 4.62l5-22.4-37 7.56 3.64-27.16 45.64-8.68c3.17-.56 6.11-1.22 8.82-2a64.27 64.27 0 0 0 7.42-2.52 48.79 48.79 0 0 1-1.68 5.88c-.56 1.49-1.22 3-2 4.48l-2.8 5.88a12.72 12.72 0 0 0-.56 1.26q-.28.69-.84 2.1a60.67 60.67 0 0 1 9.52-4.62 67.62 67.62 0 0 1 9.52-2.66l45.36-9.52-4.2 20.72a12.07 12.07 0 0 0 1-1.12 2.6 2.6 0 0 1 1-.84 40 40 0 0 1 4.62-4.48 20.79 20.79 0 0 1 4.2-2.66 21.27 21.27 0 0 1 4.76-1.54 47.58 47.58 0 0 1 6.58-.84l-4.76 27.16-17.36 3.64a30.18 30.18 0 0 0-7.42 2.24 25 25 0 0 0-6 4.2l10.92-21q-3.64 1.4-5.88 2.1c-1.5.46-3.27 1-5.32 1.54q-2.52.84-5.88 1.68l-4.5 1.13-12.88 2.8-13.44 72.8 32.5-53.17a143.72 143.72 0 0 0-4.9 14.42q-2.1 7.41-3.5 14.7l-16.24 85.12-26 5.6z"/></svg>