<?xml version="1.0" standalone="no"?>
<!DOCTYPE svg PUBLIC "-//W3C//DTD SVG 20010904//EN"
 "http://www.w3.org/TR/2001/REC-SVG-20010904/DTD/svg10.dtd">
<svg version="1.0" xmlns="http://www.w3.org/2000/svg"
 width="488.000000pt" height="488.000000pt" viewBox="0 0 488.000000 488.000000"
 preserveAspectRatio="xMidYMid meet">
<metadata>
Created by potrace 1.11, written by Peter Selinger 2001-2013
</metadata>
<g transform="translate(0.000000,488.000000) scale(0.100000,-0.100000)"
fill="#000000" stroke="none">
<path d="M1215 3647 c-8 -4 -15 -12 -15 -18 0 -11 -96 -280 -116 -326 -8 -17
-14 -34 -14 -37 0 -7 -266 -747 -280 -781 -17 -39 -360 -994 -360 -1001 0 -3
61 -3 136 -2 l137 3 33 95 c19 52 47 133 64 180 16 47 48 137 71 200 23 63 43
122 46 130 3 13 62 15 455 15 389 0 452 -2 459 -15 5 -8 36 -94 70 -190 33
-96 76 -220 95 -275 19 -55 39 -110 44 -122 9 -22 14 -23 155 -23 80 0 145 3
145 7 0 5 -18 55 -39 113 -22 58 -76 206 -121 330 -127 347 -139 380 -285 780
-76 206 -155 422 -175 480 -21 58 -53 143 -70 190 -18 47 -43 119 -57 160 -42
122 -29 114 -208 115 -86 0 -162 -3 -170 -8z m201 -360 c33 -102 62 -189 149
-432 25 -71 61 -173 80 -225 18 -52 49 -139 67 -192 19 -54 32 -99 29 -99 -3
-1 -169 -2 -368 -3 -277 -1 -363 2 -363 11 0 11 41 133 60 178 14 33 267 755
286 817 10 32 20 55 23 53 3 -3 19 -52 37 -108z"/>
<path d="M2728 3650 c0 -3 -2 -492 -3 -1088 l-1 -1083 140 3 140 3 1 440 c1
242 2 445 3 451 2 9 64 12 225 12 l223 -1 21 -31 c11 -17 34 -56 51 -86 16
-30 62 -111 101 -178 39 -68 71 -125 71 -127 0 -2 27 -50 61 -107 34 -57 74
-128 91 -158 16 -30 43 -77 59 -105 16 -27 37 -65 46 -82 l17 -33 158 0 c87 0
158 2 158 5 0 3 -119 213 -265 465 -146 253 -268 466 -271 474 -4 9 7 18 33
26 58 19 153 69 198 104 50 38 52 41 97 96 50 63 82 129 104 215 16 64 21 195
10 274 -18 129 -70 236 -156 321 -71 71 -149 117 -251 148 -60 19 -82 23 -179
39 -44 7 -879 10 -882 3z m867 -238 c145 -31 228 -86 278 -186 34 -68 37 -80
41 -186 9 -238 -87 -372 -294 -410 -65 -13 -592 -21 -609 -10 -6 4 -9 801 -3
806 8 7 549 -6 587 -14z"/>
</g>
</svg>
