<svg version="1" xmlns="http://www.w3.org/2000/svg" width="650.667" height="650.667" viewBox="0 0 488 488"><path d="M121.5 123.3c-.8.4-1.5 1.2-1.5 1.8 0 1.1-9.6 28-11.6 32.6-.8 1.7-1.4 3.4-1.4 3.7 0 .7-26.6 74.7-28 78.1-1.7 3.9-36 99.4-36 100.1 0 .3 6.1.3 13.6.2l13.7-.3 3.3-9.5c1.9-5.2 4.7-13.3 6.4-18 1.6-4.7 4.8-13.7 7.1-20 2.3-6.3 4.3-12.2 4.6-13 .3-1.3 6.2-1.5 45.5-1.5 38.9 0 45.2.2 45.9 1.5.5.8 3.6 9.4 7 19 3.3 9.6 7.6 22 9.5 27.5 1.9 5.5 3.9 11 4.4 12.2.9 2.2 1.4 2.3 15.5 2.3 8 0 14.5-.3 14.5-.7 0-.5-1.8-5.5-3.9-11.3-2.2-5.8-7.6-20.6-12.1-33-12.7-34.7-13.9-38-28.5-78-7.6-20.6-15.5-42.2-17.5-48-2.1-5.8-5.3-14.3-7-19-1.8-4.7-4.3-11.9-5.7-16-4.2-12.2-2.9-11.4-20.8-11.5-8.6 0-16.2.3-17 .8zm20.1 36c3.3 10.2 6.2 18.9 14.9 43.2 2.5 7.1 6.1 17.3 8 22.5 1.8 5.2 4.9 13.9 6.7 19.2 1.9 5.4 3.2 9.9 2.9 9.9-.3.1-16.9.2-36.8.3-27.7.1-36.3-.2-36.3-1.1 0-1.1 4.1-13.3 6-17.8 1.4-3.3 26.7-75.5 28.6-81.7 1-3.2 2-5.5 2.3-5.3.3.3 1.9 5.2 3.7 10.8zM272.8 123c0 .3-.2 49.2-.3 108.8l-.1 108.3 14-.3 14-.3.1-44c.1-24.2.2-44.5.3-45.1.2-.9 6.4-1.2 22.5-1.2l22.3.1 2.1 3.1c1.1 1.7 3.4 5.6 5.1 8.6 1.6 3 6.2 11.1 10.1 17.8 3.9 6.8 7.1 12.5 7.1 12.7 0 .2 2.7 5 6.1 10.7 3.4 5.7 7.4 12.8 9.1 15.8 1.6 3 4.3 7.7 5.9 10.5 1.6 2.7 3.7 6.5 4.6 8.2l1.7 3.3h15.8c8.7 0 15.8-.2 15.8-.5s-11.9-21.3-26.5-46.5c-14.6-25.3-26.8-46.6-27.1-47.4-.4-.9.7-1.8 3.3-2.6 5.8-1.9 15.3-6.9 19.8-10.4 5-3.8 5.2-4.1 9.7-9.6 5-6.3 8.2-12.9 10.4-21.5 1.6-6.4 2.1-19.5 1-27.4-1.8-12.9-7-23.6-15.6-32.1-7.1-7.1-14.9-11.7-25.1-14.8-6-1.9-8.2-2.3-17.9-3.9-4.4-.7-87.9-1-88.2-.3zm86.7 23.8c14.5 3.1 22.8 8.6 27.8 18.6 3.4 6.8 3.7 8 4.1 18.6.9 23.8-8.7 37.2-29.4 41-6.5 1.3-59.2 2.1-60.9 1-.6-.4-.9-80.1-.3-80.6.8-.7 54.9.6 58.7 1.4z"/></svg>