<?xml version="1.0" encoding="UTF-8"?>
<svg width="4670px" height="2932px" viewBox="0 0 4670 2932" version="1.1" xmlns="http://www.w3.org/2000/svg" xmlns:xlink="http://www.w3.org/1999/xlink">
    <!-- Generator: Sketch 49.2 (51160) - http://www.bohemiancoding.com/sketch -->
    <title>Group</title>
    <desc>Created with Sketch.</desc>
    <defs>
        <polygon id="path-1" points="867.124991 6.64071574e-13 0.370984557 6.64071574e-13 0.370984557 1398.15751 867.124991 1398.15751 867.124991 0"></polygon>
        <polygon id="path-3" points="0.0701248982 0 867.480652 0 867.480652 1398.16159 0.0701248982 1398.16159 0.0701248982 0"></polygon>
    </defs>
    <g id="Page-1" stroke="none" stroke-width="1" fill="none" fill-rule="evenodd">
        <g id="Group">
            <g id="Group-3" transform="translate(72.000000, 0.000000)">
                <mask id="mask-2" fill="white">
                    <use xlink:href="#path-1"></use>
                </mask>
                <g id="Clip-2"></g>
                <path d="M865.912092,1289.48132 C870.877737,1321.96443 860.595931,1348.22078 835.072517,1368.19781 C809.514051,1388.17483 779.918807,1398.15751 746.269261,1398.15751 L110.672562,1398.15751 C84.4948503,1398.15751 60.4903389,1390.38866 38.694079,1374.79256 C16.8744513,1359.22567 4.10982304,1338.99163 0.370984557,1314.04372 C1.60363287,1284.14243 1.60363287,1268.57554 0.370984557,1267.31383 C1.60363287,1253.61614 5.98508421,1229.93577 13.4569192,1196.29025 C30.8950956,1131.51095 70.7721447,1099.08626 133.105592,1099.08626 L521.938952,1099.08626 C548.110822,1099.08626 571.157256,1090.38282 591.107464,1072.91752 C611.028463,1055.48143 621.018172,1034.30696 621.018172,1009.37072 C621.018172,979.457757 608.866947,953.289023 584.564497,930.858679 C560.262047,908.434176 533.155468,897.219005 503.24476,897.219005 L170.488135,897.219005 C151.793943,897.219005 131.849576,889.765588 110.672562,874.847073 C89.4604952,859.916876 77.0171734,843.736654 73.2783349,826.329773 C72.0223188,818.888039 71.4089157,810.178757 71.4089157,800.219451 C71.4089157,787.777619 83.8580794,690.170577 108.7973,507.369117 C133.713154,324.573498 154.282607,190.277657 170.488135,104.46991 C182.931457,34.8423846 224.064522,-0.000584123534 293.869805,-0.000584123534 L566.810856,-0.000584123534 C619.148753,-0.000584123534 657.156383,21.9040484 680.839588,65.7133134 C688.317265,79.4986288 693.931364,95.8015166 697.664361,114.546041 C713.852363,189.670168 721.966811,252.288211 721.966811,302.341757 C721.966811,331.144888 712.298408,354.947922 692.990813,373.727494 C673.654007,392.501224 649.672864,401.882248 621.018172,401.882248 L434.076248,401.882248 C404.16554,401.882248 376.743497,412.799517 351.821802,434.593166 C326.876739,456.404339 314.433417,481.842919 314.433417,510.903064 C314.433417,536.37085 324.393916,557.259108 344.349967,573.608726 C364.270965,589.964185 387.340767,598.147755 413.518478,598.147755 L658.406557,598.147755 C688.317265,598.147755 716.358553,609.386292 742.536265,631.880889 C763.713279,653.11378 777.406775,683.721853 783.657646,723.675903 L865.912092,1289.48132 Z" id="Fill-1" fill="#F05A28" mask="url(#mask-2)"></path>
            </g>
            <path d="M1565.82353,514.271125 C1565.82353,482.550875 1553.66471,455.889508 1529.34706,434.30455 C1505.02941,412.71375 1477.26287,401.912508 1446.10588,401.912508 C1416.17647,401.912508 1389.05294,413.035042 1364.73529,435.239217 C1340.4118,457.460917 1328.25298,483.806833 1328.25298,514.271125 C1328.25298,575.199708 1367.54118,605.664 1446.10588,605.664 C1525.89816,605.664 1565.82353,575.199708 1565.82353,514.271125 Z M1809,803.608875 C1809,832.349875 1799.32555,856.388333 1780.00588,875.72425 C1760.68621,895.089375 1736.69007,904.763175 1708.01162,904.763175 L1375.16967,904.763175 C1344.01268,904.763175 1316.5618,916.615917 1292.89886,940.303875 C1269.21838,963.991833 1255.51048,992.031833 1251.7693,1024.42387 C1244.3454,1083.01579 1229.52684,1178.38684 1207.28437,1310.49029 C1206.02173,1319.39883 1202.90018,1328.31322 1197.90805,1337.18671 C1175.36746,1380.42088 1143.47978,1402 1102.20408,1402 C1053.39926,1402 1024.0018,1376.09221 1014,1324.21821 C1015.23342,1292.61479 1015.23342,1276.1705 1014,1274.88533 C1018.9629,1244.976 1030.22151,1169.59513 1047.69982,1048.696 L1174.84136,149.546667 C1188.54926,49.858625 1232.8296,0 1307.65313,0 L1580.79408,0 C1648.12941,0 1690.50993,32.4796667 1707.98824,97.4156333 C1712.95699,117.394133 1719.82555,157.987875 1728.56471,219.179333 L1809,803.608875 Z" id="Fill-4" fill="#F05A28"></path>
            <path d="M2368.22884,515.622563 C2368.22884,485.428444 2356.07876,459.629598 2331.77861,438.237714 C2307.47847,416.84583 2280.37445,406.120664 2250.46658,406.120664 C2219.30281,406.120664 2191.87752,416.84583 2168.21993,438.237714 C2144.53312,459.629598 2132.70433,485.428444 2132.70433,515.622563 C2132.70433,544.583433 2145.78902,567.869025 2171.95841,585.461804 C2193.13342,599.313926 2219.30281,606.239987 2250.46658,606.239987 C2307.77053,606.239987 2345.79793,584.853947 2364.49035,542.040955 C2366.97294,534.495348 2368.22884,525.704803 2368.22884,515.622563 Z M2686,1311.35974 C2686,1334.58688 2676.96922,1355.66315 2658.98361,1374.60023 C2640.99215,1393.53146 2620.19684,1403 2596.59765,1403 C2535.75966,1403 2499.74754,1369.92441 2488.58466,1303.76153 C2480.99671,1248.93752 2465.83832,1151.06673 2443.11535,1010.20176 C2443.11535,1006.4611 2438.76352,995.244971 2430.05986,976.535839 C2426.32138,967.827122 2417.64692,956.926612 2403.97809,943.840156 C2390.30926,930.742011 2379.12301,922.968457 2370.44856,920.461048 C2345.59348,912.973889 2305.84288,909.239076 2251.19675,909.239076 C2190.30035,909.239076 2150.54975,913.008957 2131.91574,920.490272 C2088.42665,937.966155 2061.73154,981.685088 2051.80119,1051.58278 C2040.46891,1136.36711 2027.23818,1223.62964 2012.109,1313.34112 C2012.109,1317.02333 2008.98386,1324.3293 2002.73942,1335.28826 C1980.18001,1380.44501 1947.62015,1403 1905.06568,1403 C1861.25532,1403 1831.81475,1379.68518 1816.80824,1332.98542 C1813.06392,1321.93294 1813.06392,1304.1356 1816.80824,1279.55831 L1979.39726,153.620449 C1980.62979,142.404322 1983.13575,127.435847 1986.87423,108.738405 C1998.08968,62.6172695 2021.13393,32.05493 2056.03619,17.0923007 C2077.2112,8.38358282 2109.60166,4 2153.23678,4 L2345.79793,4 C2391.88643,4 2421.79431,6.51325415 2435.52155,11.4754699 C2465.42943,22.6974419 2489.72957,48.2683417 2508.422,88.1647901 C2512.16048,96.8968871 2517.12566,123.087333 2523.37593,166.718594 L2686,1311.35974 Z" id="Fill-6" fill="#F05A28"></path>
            <path d="M3640,1302.92533 C3640,1330.35196 3630.00499,1353.71863 3610.07343,1373.02533 C3590.11265,1392.36709 3566.41104,1402 3538.99784,1402 L2884.35421,1402 C2859.39592,1402 2835.7177,1393.90929 2813.27862,1377.66946 C2790.83369,1361.46468 2777.73498,1341.48618 2774,1317.76317 C2775.22746,1286.56867 2775.22746,1270.32883 2774,1269.07288 C2776.48414,1257.85688 2787.7066,1182.35333 2807.66739,1042.56809 L2934.85529,147.677333 C2937.33943,127.75725 2945.4348,99.0805083 2959.17063,61.6938417 C2982.84301,20.5626667 3020.25121,0 3071.39525,0 L3342.60475,0 C3413.68035,0 3456.05683,37.5619167 3469.79266,112.691592 C3487.24008,206.590542 3495.9784,269.826583 3495.9784,302.364667 C3495.9784,331.164083 3486.30487,354.974717 3467.01627,373.749833 C3447.69843,392.530792 3423.70458,401.912508 3395.06392,401.912508 L3208.16901,401.912508 C3172.04086,401.912508 3142.14937,416.686083 3118.47114,446.192342 C3097.2829,470.814967 3084.19587,502.178875 3079.22759,540.29575 C3069.29104,617.586842 3056.25661,713.530375 3040.12433,828.202292 L3013.49436,1001.96267 C3013.49436,1029.91504 3023.46598,1053.72568 3043.42677,1073.40625 C3063.35833,1093.09267 3087.05409,1102.91251 3114.50236,1102.91251 L3503.48927,1102.91251 C3533.38661,1102.91251 3559.57235,1112.89592 3582.01728,1132.816 C3604.4622,1152.77113 3618.78253,1177.68584 3625.03087,1207.59517 C3635.0025,1256.192 3640,1287.97067 3640,1302.92533" id="Fill-8" fill="#F05A28"></path>
            <g id="Group-12" transform="translate(3676.000000, 0.000000)">
                <mask id="mask-4" fill="white">
                    <use xlink:href="#path-3"></use>
                </mask>
                <g id="Clip-11"></g>
                <path d="M867.480652,1296.61172 C867.480652,1324.21156 856.87754,1347.72253 835.700525,1367.14463 C814.4943,1386.59011 790.19185,1396.28656 762.787333,1396.28656 L140.276568,1398.16159 C53.0272668,1398.16159 6.2917858,1370.79541 0.0701248982,1316.03383 C1.29108934,1286.18511 1.29108934,1270.61822 0.0701248982,1269.36236 C43.6743287,986.880215 97.8933285,612.895122 162.703757,147.465491 C168.93126,103.919081 177.664953,72.808662 188.881468,54.1517563 C211.314499,18.0470807 260.52696,-0.00233649413 336.559746,-0.00233649413 L570.237151,-0.00233649413 C578.941634,2.5093947 587.067766,3.74189536 594.539601,3.74189536 C618.199438,4.99776095 641.275082,17.4687984 663.708113,41.1258015 C686.146986,64.8120108 697.363501,88.4982201 697.363501,112.155223 L723.529529,297.205559 C724.756335,324.630158 715.122984,348.316368 694.55353,368.23498 C673.995761,388.176958 649.985407,398.142105 622.58089,398.142105 L433.775388,398.142105 C403.864681,398.142105 376.758102,409.065215 352.455652,430.847182 C328.153201,452.670037 316.001976,478.511662 316.001976,508.424628 C316.001976,533.366703 326.27794,554.541181 346.847394,571.971427 C367.405163,589.442562 390.136133,598.146003 415.081196,598.146003 L661.844536,598.146003 C750.314801,598.146003 794.573302,665.431193 794.573302,800.019096 C794.573302,828.699562 784.899057,852.677833 765.597303,871.983116 C746.260498,891.311763 722.279354,900.955643 693.618821,900.955643 L362.737457,900.955643 C332.820908,900.955643 305.720171,911.469866 281.41772,932.439901 C257.11527,953.409936 244.958203,978.72585 244.958203,1008.34091 C244.958203,1033.05518 254.924545,1054.02521 274.874753,1071.31527 C294.795752,1088.60533 317.228783,1097.21531 342.168004,1097.21531 L732.882467,1097.21531 C762.787333,1097.21531 788.965044,1107.58934 811.392233,1128.26732 C833.825264,1148.94529 848.138005,1174.34882 854.394717,1204.43702 C863.099201,1250.84564 867.480652,1281.57054 867.480652,1296.61172" id="Fill-10" fill="#F05A28" mask="url(#mask-4)"></path>
            </g>
            <path d="M586,1832.83784 C583.486405,1882.69062 563.599264,1913.21917 526.280255,1924.43518 C516.301692,1926.94125 496.41455,1931.91251 466.56051,1939.384 C445.384494,1944.38447 427.363595,1957.79109 412.433658,1979.57467 C397.509554,2001.39329 390.038754,2023.50984 390.038754,2045.936 L390.038754,2825.45384 C390.038754,2852.87463 380.066023,2877.49725 360.178881,2899.29251 C340.26258,2921.11113 316.619626,2932 289.261684,2932 C261.880414,2932 238.552389,2920.784 219.277607,2898.352 C199.979498,2875.92584 190.350856,2851.01113 190.350856,2823.58451 L190.350856,2045.936 C190.350856,1993.60051 165.448189,1958.72576 115.701174,1941.25918 L41.0573248,1915.08267 C13.6702229,1897.65113 0,1870.21867 0,1832.83784 C0,1802.92851 8.07149682,1740.00792 24.2611465,1644.03517 C25.4800358,1636.552 29.8540406,1623.46667 37.3248408,1604.77918 C57.2119825,1554.94976 95.7848726,1530 153.031847,1530 L432.968153,1530 C490.174303,1530 528.758857,1554.94976 548.675159,1604.77918 C553.626533,1617.25113 559.872611,1649.64317 567.331748,1701.98451 L586,1832.83784 Z" id="Fill-13" fill="#F05A28"></path>
            <path d="M1210.65981,2530.68011 L1150.71478,2109.85791 C1148.21074,1991.38478 1104.74913,1932.12483 1020.3241,1932.12483 C947.035895,1932.12483 904.80587,1978.26331 893.65154,2070.55195 C850.172418,2414.72021 828.435775,2568.08652 828.435775,2530.68011 C828.435775,2558.092 838.35268,2581.47101 858.256534,2600.78791 C878.131204,2620.11067 901.741494,2629.74866 929.122426,2629.74866 L1109.97316,2629.74866 C1137.32491,2629.74866 1160.92936,2620.11067 1180.83905,2600.78791 C1200.70789,2581.47101 1210.65981,2558.092 1210.65981,2530.68011 Z M1451.89919,2820.52724 C1453.12494,2852.96561 1443.17302,2879.14426 1422.01423,2899.07487 C1400.82625,2919.0347 1374.06403,2929 1341.69838,2929 L697.333,2929 C671.183655,2929 647.193966,2921.22648 625.422302,2905.62099 C603.621453,2890.04472 591.480686,2869.7985 589,2844.83556 C590.225751,2814.91627 590.225751,2799.34001 589,2798.07754 C593.967208,2766.92501 605.17407,2691.4751 622.626423,2571.76872 L749.637526,1675.88503 C754.59306,1645.1124 761.451427,1619.25522 770.177603,1598.32516 C790.081457,1552.79454 827.443501,1530 882.246223,1530 L1156.81434,1530 C1220.31989,1530 1261.41172,1561.77208 1280.08983,1625.24024 C1281.31558,1631.49413 1285.0512,1654.5283 1291.29085,1694.35445 L1451.89919,2820.52724 Z" id="Fill-15" fill="#F05A28"></path>
            <path d="M1962,2819.84584 C1962,2860.97118 1950.14396,2891.52309 1926.49029,2911.44317 C1909.02746,2925.16525 1892.84951,2932 1877.89806,2932 L1661.10194,2932 C1634.93689,2932 1614.37864,2922.03996 1599.42718,2902.09067 C1584.46989,2882.17643 1577,2858.48263 1577,2831.06184 C1594.42779,2679.03247 1633.06796,2338.80796 1692.87379,1810.4 C1695.35596,1785.49113 1700.34367,1740.62713 1707.82524,1675.808 C1710.30158,1647.16047 1718.39639,1609.16043 1732.12136,1561.78451 C1742.07926,1540.60847 1752.67961,1530 1763.8932,1530 C1788.80256,1530 1806.8728,1552.43784 1818.08639,1597.30184 C1818.08639,1599.80792 1821.8301,1625.98443 1829.29998,1675.808 C1831.788,1689.54176 1837.3948,1736.27509 1846.12621,1816.008 L1962,2819.84584 Z" id="Fill-17" fill="#F05A28"></path>
            <path d="M2957,2833.54455 C2957,2860.79593 2947.01502,2884.01655 2927.10345,2903.20643 C2907.16268,2922.42551 2883.48485,2932 2856.09914,2932 L2200.2377,2932 C2174.08405,2932 2149.7931,2923.91513 2127.37069,2907.66946 C2104.94828,2891.46468 2092.48165,2870.8728 2090,2845.89968 C2091.22039,2815.92608 2091.22039,2800.32883 2090,2799.07872 C2094.96329,2767.88422 2106.1745,2691.76146 2123.63362,2570.69876 L2252.5625,1672.07517 C2256.29957,1646.25501 2262.51245,1620.40563 2271.2712,1594.58547 C2278.75118,1579.83526 2291.50977,1565.37713 2309.582,1551.2403 C2327.65423,1537.10347 2344.17908,1530 2359.15655,1530 L2372.26549,1530 C2376.00256,1530 2384.70292,1532.4535 2398.42497,1537.33129 C2437.08028,1550.83138 2456.40793,1582.66847 2456.40793,1632.84838 L2331.24532,2530.12838 C2331.24532,2558.5773 2341.2011,2582.82022 2361.11268,2602.85713 C2381.02425,2622.88821 2404.70208,2632.91251 2432.11699,2632.91251 L2822.52391,2632.91251 C2851.13584,2632.91251 2877.29533,2643.13542 2900.93813,2663.58126 C2924.59261,2684.02709 2938.92777,2708.47447 2943.92026,2736.95259 C2952.62062,2782.78047 2957,2814.96805 2957,2833.54455" id="Fill-19" fill="#F05A28"></path>
            <path d="M3880,2827.3894 C3880,2855.00574 3869.40191,2878.53077 3848.23491,2897.96449 C3827.03873,2917.42159 3802.74778,2927.12384 3775.35623,2927.12384 L3153.14009,2929 C3065.93208,2929 3019.21872,2901.61745 3013,2846.82312 C3014.22039,2816.95656 3014.22039,2801.38036 3013,2800.12374 C3056.58357,2517.47268 3110.77691,2143.26396 3175.55666,1677.55601 C3181.78122,1633.97772 3190.51078,1602.86038 3201.72198,1584.18648 C3224.1444,1548.06606 3273.33357,1530 3349.33037,1530 L3582.89718,1530 C3591.59754,1532.51908 3599.71983,1533.74647 3607.18813,1533.74647 C3630.83677,1535.00309 3653.90149,1547.48158 3676.3239,1571.14689 C3698.75216,1594.8531 3709.96336,1618.55348 3709.96336,1642.22463 L3736.11701,1827.37977 C3737.34323,1854.82662 3727.71444,1878.52115 3707.15472,1898.45167 C3686.60668,1918.41142 3662.60769,1928.38252 3635.21614,1928.38252 L3446.5,1928.38252 C3416.60345,1928.38252 3389.5097,1939.31216 3365.21875,1961.113 C3340.9278,1982.94306 3328.78233,2008.80014 3328.78233,2038.72515 C3328.78233,2063.68798 3339.05343,2084.87512 3359.61315,2102.31579 C3380.16119,2119.79737 3402.8814,2128.50602 3427.81466,2128.50602 L3674.46121,2128.50602 C3762.8896,2128.50602 3807.12716,2195.83144 3807.12716,2330.49398 C3807.12716,2359.19744 3797.45749,2383.19005 3778.16487,2402.50688 C3758.83722,2421.85293 3734.86742,2431.49673 3706.22045,2431.49673 L3375.49569,2431.49673 C3345.5933,2431.49673 3318.50539,2442.0114 3294.21444,2462.99397 C3269.92349,2483.98239 3257.77218,2509.31929 3257.77218,2538.94622 C3257.77218,2563.67526 3267.7338,2584.65783 3287.67457,2601.95823 C3307.58614,2619.25863 3330.00855,2627.8796 3354.93597,2627.8796 L3745.46552,2627.8796 C3775.35623,2627.8796 3801.52155,2638.25399 3823.93813,2658.94433 C3846.36054,2679.63467 3860.66651,2705.05339 3866.92026,2735.15959 C3875.62062,2781.59595 3880,2812.33922 3880,2827.3894" id="Fill-21" fill="#F05A28"></path>
            <path d="M4670,1832.83784 C4667.49224,1882.69062 4647.6051,1913.21917 4610.28025,1924.43518 C4600.30752,1926.94125 4580.42038,1931.91251 4550.56051,1939.384 C4529.39033,1944.38447 4511.36943,1957.79109 4496.43949,1979.57467 C4481.50955,2001.39329 4474.03875,2023.50984 4474.03875,2045.936 L4474.03875,2825.45384 C4474.03875,2852.87463 4464.06602,2877.49725 4444.18471,2899.29251 C4424.26841,2921.11113 4400.61963,2932 4373.26752,2932 C4345.88625,2932 4322.55822,2920.784 4303.28344,2898.352 C4283.9795,2875.92584 4274.35669,2851.01113 4274.35669,2823.58451 L4274.35669,2045.936 C4274.35669,1993.60051 4249.45402,1958.72576 4199.70701,1941.25918 L4125.05732,1915.08267 C4097.67605,1897.65113 4084,1870.21867 4084,1832.83784 C4084,1802.92851 4092.07733,1740.00792 4108.26115,1644.03517 C4109.48587,1636.552 4113.85987,1623.46667 4121.32484,1604.77918 C4141.21198,1554.94976 4179.7907,1530 4237.03185,1530 L4516.96815,1530 C4574.18014,1530 4612.75886,1554.94976 4632.67516,1604.77918 C4637.63236,1617.25113 4643.87261,1649.64317 4651.33758,1701.98451 L4670,1832.83784 Z" id="Fill-23" fill="#F05A28"></path>
        </g>
    </g>
</svg>