<svg id="Layer_1" data-name="Layer 1" xmlns="http://www.w3.org/2000/svg" viewBox="0 0 755 500"><defs><style>.cls-1{fill:#fad1dd;}</style></defs><title>Artboard 5</title><path class="cls-1" d="M21.5,124.25q.8,14.66,6.66,23.79,11.18,17.11,39.4,17.11a67.43,67.43,0,0,0,23-3.75q20.09-7.26,20.09-26,0-14.07-8.51-20t-27-10.2L52.56,99.88Q30.42,94.72,21.22,88.51,5.34,77.72,5.33,56.28,5.33,33.09,21,18.2T65.2,3.32q26.34,0,44.76,13.06t18.42,41.78H106.46Q104.78,44.33,99.27,37,89,23.48,64.55,23.47q-19.77,0-28.42,8.67T27.48,52.3Q27.48,65,37.7,70.82,44.39,74.57,68,80.19L91.4,85.7q16.92,4,26.12,10.9,15.9,12.08,15.9,35,0,28.59-20.29,40.89T66,184.84q-31.32,0-49-16.41T-.41,124.25Z"/><path class="cls-1" d="M159,7.65h77q22.83,0,36.88,13T286.94,57a53,53,0,0,1-12.53,35.1Q261.87,107,236,107H182.29V179.8H159Zm90.45,23.67q-7.68-3.63-21.06-3.63H182.29V87.34h46.07q15.6,0,25.31-6.68t9.72-23.55Q263.39,38.12,249.42,31.32Z"/><path class="cls-1" d="M352.66,7.65H379L441.47,179.8H415.92l-18-51.56H330.41L311.74,179.8H287.83Zm38.67,101.6-26.5-76-27.55,76.05Z"/><path class="cls-1" d="M579.46,20.19q17.84,17.23,19.8,39.14H576.53Q572.74,42.7,561.4,33t-31.83-9.72q-25,0-40.33,17.88T473.87,96q0,30.27,13.88,49.09t41.38,18.82q25.32,0,38.57-19.8,7-10.42,10.47-27.42h22.74q-3,27.18-19.93,45.58-20.26,22.16-54.68,22.15-29.65,0-49.81-18.17Q450,142.15,450,92q0-38.11,19.92-62.5Q491.43,3,529.31,3,561.62,3,579.46,20.19Z"/><path class="cls-1" d="M628.45,7.65H753.37v21.1H651.18V81h94.46v19.92H651.18v58.36h104V179.8H628.45Z"/><path class="cls-1" d="M354.8,327.65v20.51h-58V499.8H273.24V348.16h-58V327.65Z"/><path class="cls-1" d="M518,352.26q17.12,22.86,17.11,58.48,0,38.55-19.57,64.1-23,30-65.51,30-39.72,0-62.46-26.25-20.28-25.32-20.27-64,0-34.94,17.34-59.77Q406.94,323,450.54,323,496.13,323,518,352.26ZM497.47,462q13.77-22.11,13.77-50.84,0-30.37-15.88-48.91T452,343.71q-26.73,0-43.6,18.35t-16.87,54.13q0,28.62,14.47,48.26t46.93,19.65Q483.71,484.1,497.47,462Z"/></svg>