<svg id="Layer_1" data-name="Layer 1" xmlns="http://www.w3.org/2000/svg" viewBox="0 0 755 500"><defs><style>.cls-1{fill:#fad1dd}</style></defs><title>Artboard 5</title><path class="cls-1" d="M21.5 124.25q.8 14.66 6.66 23.79 11.18 17.11 39.4 17.11a67.43 67.43 0 0 0 23-3.75q20.09-7.26 20.09-26 0-14.07-8.51-20t-27-10.2l-22.58-5.32q-22.14-5.16-31.34-11.37Q5.34 77.72 5.33 56.28 5.33 33.09 21 18.2T65.2 3.32q26.34 0 44.76 13.06t18.42 41.78h-21.92Q104.78 44.33 99.27 37 89 23.48 64.55 23.47q-19.77 0-28.42 8.67T27.48 52.3q0 12.7 10.22 18.52 6.69 3.75 30.3 9.37l23.4 5.51q16.92 4 26.12 10.9 15.9 12.08 15.9 35 0 28.59-20.29 40.89T66 184.84q-31.32 0-49-16.41T-.41 124.25zM159 7.65h77q22.83 0 36.88 13T286.94 57a53 53 0 0 1-12.53 35.1Q261.87 107 236 107h-53.71v72.8H159zm90.45 23.67q-7.68-3.63-21.06-3.63h-46.1v59.65h46.07q15.6 0 25.31-6.68t9.72-23.55q0-18.99-13.97-25.79zM352.66 7.65H379l62.47 172.15h-25.55l-18-51.56h-67.51l-18.67 51.56h-23.91zm38.67 101.6l-26.5-76-27.55 76.05zM579.46 20.19q17.84 17.23 19.8 39.14h-22.73Q572.74 42.7 561.4 33t-31.83-9.72q-25 0-40.33 17.88T473.87 96q0 30.27 13.88 49.09t41.38 18.82q25.32 0 38.57-19.8 7-10.42 10.47-27.42h22.74q-3 27.18-19.93 45.58-20.26 22.16-54.68 22.15-29.65 0-49.81-18.17Q450 142.15 450 92q0-38.11 19.92-62.5Q491.43 3 529.31 3q32.31 0 50.15 17.19zM628.45 7.65h124.92v21.1H651.18V81h94.46v19.92h-94.46v58.36h104v20.52H628.45zM354.8 327.65v20.51h-58V499.8h-23.56V348.16h-58v-20.51zM518 352.26q17.12 22.86 17.11 58.48 0 38.55-19.57 64.1-23 30-65.51 30-39.72 0-62.46-26.25-20.28-25.32-20.27-64 0-34.94 17.34-59.77 22.3-31.82 65.9-31.82 45.59 0 67.46 29.26zM497.47 462q13.77-22.11 13.77-50.84 0-30.37-15.88-48.91T452 343.71q-26.73 0-43.6 18.35t-16.87 54.13q0 28.62 14.47 48.26t46.93 19.65q30.78 0 44.54-22.1z"/></svg>