<?xml version="1.0" encoding="UTF-8"?>
<svg width="6432px" height="2920px" viewBox="0 0 6432 2920" version="1.1" xmlns="http://www.w3.org/2000/svg" xmlns:xlink="http://www.w3.org/1999/xlink">
    <!-- Generator: Sketch 49.2 (51160) - http://www.bohemiancoding.com/sketch -->
    <title>させるスペース</title>
    <desc>Created with Sketch.</desc>
    <defs></defs>
    <g id="Page-1" stroke="none" stroke-width="1" fill="none" fill-rule="evenodd">
        <path d="M1380.36406,254.887369 L1395.26008,420.398647 C1238.02436,440.260001 1082.44376,458.466242 930.173385,471.707144 C1019.54948,625.632633 1112.23579,753.076317 1208.23233,854.038197 L1118.85624,968.240979 C928.518273,893.760904 749.766092,857.348423 584.254813,857.348423 C481.637821,857.348423 402.192407,875.554663 347.573685,911.967145 C297.920301,945.0694 273.09361,986.44722 273.09361,1037.75572 C273.09361,1100.65 304.540752,1148.64827 367.435038,1185.06075 C433.63955,1224.78346 531.291204,1244.64481 660.390001,1244.64481 C804.384814,1244.64481 943.414288,1233.05903 1079.13354,1213.19767 L1102.30512,1382.01918 C981.481882,1401.88053 834.176844,1411.81121 660.390001,1411.81121 C478.327595,1411.81121 337.643008,1377.05384 238.336241,1309.19421 C140.684587,1242.9897 92.686316,1153.61361 92.686316,1037.75572 C92.686316,930.173385 137.374361,845.762633 230.060677,784.52346 C316.126542,724.9394 431.984437,696.802483 574.324136,696.802483 C683.56158,696.802483 796.10925,713.35361 910.312032,749.766092 C852.383084,680.251355 794.454137,590.875264 736.525189,484.948046 C577.634362,493.22361 422.05376,498.188948 266.473158,498.188948 C170.476617,498.188948 82.7556393,496.533836 1.65511279,493.22361 L0,324.402106 C137.374361,329.367444 225.095339,332.67767 263.162933,332.67767 C385.641279,332.67767 516.395189,327.712331 653.76955,321.09188 C615.701956,241.646467 577.634362,155.580602 539.566768,61.2391731 L703.422934,0 C741.490528,102.616993 787.833686,206.889098 840.797295,309.506091 C1011.27391,296.265189 1191.68121,278.058948 1380.36406,254.887369 Z M2771.28775,56.2738347 C2776.25308,158.890827 2779.56331,286.334512 2782.87354,435.294663 L3070.86316,423.708873 L3075.8285,590.875264 L2782.87354,604.116167 C2782.87354,766.31722 2769.63263,877.209776 2744.80594,938.448949 C2708.39346,1021.20459 2638.87872,1064.23752 2536.26173,1064.23752 C2470.05722,1064.23752 2395.57714,1054.30684 2311.16639,1034.44549 L2314.47662,868.934212 C2420.40384,888.795566 2493.2288,898.726242 2531.29639,898.726242 C2564.39865,898.726242 2585.91511,868.934212 2597.5009,809.350152 C2604.12135,771.282558 2607.43158,705.078047 2607.43158,610.736618 L2082.76083,632.253084 L2081.10571,1007.96369 C2081.10571,1094.02955 2107.58752,1155.26872 2163.86135,1191.68121 C2208.5494,1221.47324 2278.06414,1236.36925 2372.40556,1236.36925 C2561.08842,1236.36925 2739.8406,1228.09369 2905.35188,1211.54256 L2916.93767,1378.70895 C2724.94459,1393.60497 2542.88218,1401.88053 2372.40556,1401.88053 C2220.13519,1401.88053 2107.58752,1373.74361 2033.10744,1319.12489 C1947.04158,1254.57549 1904.00865,1150.30339 1904.00865,1007.96369 C1904.00865,935.138724 1904.00865,812.660378 1905.66376,640.528648 L1607.74346,652.114437 L1602.77812,486.603159 L1907.31887,473.362257 L1910.6291,107.582331 L2087.72617,107.582331 L2084.41594,465.086693 L2607.43158,443.570226 C2604.12135,278.058948 2600.81113,150.615263 2595.84579,57.9289475 L2771.28775,56.2738347 Z M4354.20451,99.3067671 L4446.89083,215.164662 C4269.79376,350.88391 4094.3518,486.603159 3918.90985,623.97752 C4004.97571,587.565039 4089.38647,571.013911 4173.79722,571.013911 C4319.44714,571.013911 4431.99481,605.771279 4511.44023,675.286016 C4590.88564,744.800753 4630.60835,837.487069 4630.60835,953.344964 C4630.60835,1087.4091 4571.02429,1194.99143 4455.16639,1276.09196 C4337.65338,1355.53737 4187.03812,1395.26008 4001.66549,1395.26008 C3879.18714,1395.26008 3784.84571,1372.0885 3715.33098,1327.40045 C3644.16113,1281.0573 3609.40376,1219.81812 3609.40376,1142.02782 C3609.40376,1072.51308 3634.23045,1014.58414 3685.53895,966.585867 C3740.15767,913.622257 3812.98263,887.140453 3905.66895,887.140453 C4023.18195,887.140453 4115.86827,921.897821 4183.72789,993.067671 C4230.07105,1039.41083 4264.82842,1102.30512 4288,1181.75053 C4397.23744,1125.47669 4453.51128,1049.34151 4453.51128,953.344964 C4453.51128,873.899551 4425.37436,814.31549 4369.10053,776.247896 C4319.44714,743.145641 4246.62218,726.594513 4153.93586,726.594513 C4028.14729,726.594513 3905.66895,754.73143 3783.1906,811.005265 C3678.9185,859.003536 3576.3015,926.86316 3475.33962,1016.23925 L3366.10218,900.381355 L4148.97053,254.887369 L3505.13165,289.644737 L3495.20098,125.788572 L4354.20451,99.3067671 Z M4130.76429,1233.05903 C4094.3518,1103.96023 4019.87173,1041.06594 3905.66895,1041.06594 C3867.60135,1041.06594 3837.80932,1050.99662 3814.63774,1070.85797 C3791.46616,1089.06421 3781.53549,1112.23579 3781.53549,1140.37271 C3781.53549,1163.54429 3794.77639,1185.06075 3821.25819,1204.92211 C3859.32579,1231.40391 3918.90985,1244.64481 4001.66549,1244.64481 C4046.35353,1244.64481 4089.38647,1239.67948 4130.76429,1233.05903 Z M5708.71571,948.379626 C5533.27376,1133.75226 5308.17842,1294.2982 5033.4297,1430.01745 L4920.88203,1281.0573 C5376.03804,1069.20286 5698.78504,758.041656 5890.77812,347.573685 L5097.9791,347.573685 L5097.9791,177.097068 L6028.15248,177.097068 L6139.04504,249.922031 C6049.66895,465.086693 5943.74173,652.114437 5824.57361,811.005265 C5925.53549,880.520002 6016.56669,946.724513 6099.32233,1009.6188 C6240.00692,1117.20113 6350.89947,1214.85278 6432,1304.22887 L6288.00519,1423.397 C6203.59444,1334.0209 6099.32233,1239.67948 5973.53376,1142.02782 C5892.43323,1079.13354 5804.71225,1014.58414 5708.71571,948.379626 Z M1891.28083,1597.18384 C1940.93421,1597.18384 1982.31203,1613.73497 2018.72451,1650.14745 C2053.48188,1683.2497 2071.68812,1726.28264 2071.68812,1777.59113 C2071.68812,1827.24451 2053.48188,1870.27745 2018.72451,1905.03482 C1982.31203,1938.13707 1940.93421,1956.34331 1891.28083,1956.34331 C1841.62745,1956.34331 1798.59451,1938.13707 1763.83714,1905.03482 C1727.42466,1870.27745 1710.87354,1827.24451 1710.87354,1777.59113 C1710.87354,1726.28264 1727.42466,1683.2497 1763.83714,1650.14745 C1798.59451,1613.73497 1841.62745,1597.18384 1891.28083,1597.18384 Z M1330.19759,1782.55647 C1353.36917,1782.55647 1379.85098,1787.52181 1406.33278,1800.76271 C1442.74526,1817.31384 1479.15775,1845.45076 1518.88045,1885.17346 C1806.87008,2179.78354 2070.03301,2428.05046 2308.36925,2629.97422 L2180.92557,2773.96903 C1889.62572,2524.047 1633.08323,2279.09031 1411.29812,2039.09895 C1391.43677,2015.92737 1374.88564,2001.03136 1361.64474,1991.10068 C1348.40384,1981.17 1340.12827,1976.20467 1333.50782,1976.20467 C1320.26692,1976.20467 1307.02602,1984.48023 1292.13,2004.34158 C1129.92895,2193.02444 984.279022,2353.57038 853.525112,2482.66918 L709.5303,2346.94993 C825.388195,2245.98805 974.348346,2090.40745 1156.41075,1878.55301 C1211.02947,1814.00361 1268.95842,1782.55647 1330.19759,1782.55647 Z M1891.28083,1696.4906 C1868.10925,1696.4906 1849.90301,1703.11106 1833.35188,1719.66218 C1816.80075,1736.21331 1810.1803,1754.41955 1810.1803,1777.59113 C1810.1803,1799.1076 1816.80075,1817.31384 1833.35188,1833.86497 C1849.90301,1848.76098 1868.10925,1857.03655 1891.28083,1857.03655 C1912.79729,1857.03655 1932.65865,1848.76098 1949.20978,1833.86497 C1964.10579,1817.31384 1972.38136,1799.1076 1972.38136,1777.59113 C1972.38136,1754.41955 1964.10579,1736.21331 1949.20978,1719.66218 C1932.65865,1703.11106 1912.79729,1696.4906 1891.28083,1696.4906 Z M2534.09353,2140.06083 L3806.87526,2140.06083 L3806.87526,2310.53745 L2534.09353,2310.53745 L2534.09353,2140.06083 Z M4878.36218,2437.98113 C4702.92022,2623.35376 4477.82489,2783.8997 4203.07616,2919.61895 L4090.52849,2770.6588 C4545.68451,2558.80437 4868.4315,2247.64316 5060.42459,1837.17519 L4267.62556,1837.17519 L4267.62556,1666.69857 L5197.79895,1666.69857 L5308.6915,1739.52354 C5219.31541,1954.6882 5113.38819,2141.71594 4994.22007,2300.60677 C5095.18195,2370.12151 5186.21316,2436.32602 5268.9688,2499.22031 C5409.65338,2606.80264 5520.54594,2704.45429 5601.64647,2793.83038 L5457.65165,2912.9985 C5373.2409,2823.62241 5268.9688,2729.28098 5143.18023,2631.62933 C5062.0797,2568.73504 4974.35872,2504.18564 4878.36218,2437.98113 Z" id="させるスペース" fill="#00614B"></path>
    </g>
</svg>