<?xml version="1.0" encoding="UTF-8"?>
<svg width="4612px" height="2974px" viewBox="0 0 4612 2974" version="1.1" xmlns="http://www.w3.org/2000/svg" xmlns:xlink="http://www.w3.org/1999/xlink">
    <!-- Generator: Sketch 49.2 (51160) - http://www.bohemiancoding.com/sketch -->
    <title>SPACE TO LET</title>
    <desc>Created with Sketch.</desc>
    <defs></defs>
    <g id="Page-1" stroke="none" stroke-width="1" fill="none" fill-rule="evenodd">
        <path d="M796.581676,84.6810934 L701.738851,482.682232 C672.382592,422.840627 639.357296,377.113294 602.661972,345.498861 C565.966648,313.884428 527.860537,298.077449 488.342496,298.077449 C464.631671,298.077449 447.695622,305.134136 437.53384,319.247722 C427.372058,333.361308 422.291243,351.14416 422.291243,372.596811 C422.291243,408.727591 468.583111,451.067715 561.168236,499.618451 C653.753361,548.169187 718.392616,600.388673 755.08794,656.278474 C791.783264,712.168275 810.130651,789.227299 810.130651,887.457859 C810.130651,1024.07737 775.41175,1127.38727 705.972906,1197.39066 C636.534062,1267.39405 534.070964,1302.39522 398.580537,1302.39522 C327.448063,1302.39522 259.703866,1295.33853 195.345913,1281.22494 C130.98796,1267.11136 67.7600428,1242.55409 5.66026378,1207.55239 L98.8094665,785.840547 C124.778465,846.811239 157.803761,895.643514 197.886346,932.338838 C237.96893,969.034162 276.639576,987.381549 313.899444,987.381549 C331.964834,987.381549 347.207278,980.607129 359.627234,967.058087 C372.04719,953.509044 378.257075,936.572995 378.257075,916.249431 C378.257075,872.215042 341.844569,831.286256 269.018464,793.461845 C196.19236,755.637434 140.02113,708.216496 100.503088,651.197608 C60.9850472,594.17872 41.226323,518.248766 41.226323,423.405467 C41.226323,283.398693 75.6629566,177.830652 144.537257,106.698178 C213.411557,35.5657036 315.592388,0 451.082815,0 C514.311681,0 578.104133,8.46802466 642.462086,25.404328 C706.820039,42.3406314 758.192722,62.0993556 796.581676,84.6810934 Z M1500.07833,872.215262 C1466.20572,872.215262 1434.02723,863.747237 1403.54188,846.810934 C1373.05654,829.874631 1339.74897,801.647882 1303.61819,762.129841 L1303.61819,1282.07175 L924.246893,1282.07175 L924.246893,20.3234624 L1447.57605,20.3234624 C1552.58113,20.3234624 1635.2855,60.4054458 1695.69165,140.570615 C1756.0978,220.735784 1786.30042,322.916615 1786.30042,447.116173 C1786.30042,566.799384 1757.79141,667.568877 1700.77252,749.427677 C1643.75363,831.286476 1576.85624,872.215262 1500.07833,872.215262 Z M1303.61819,567.363326 C1313.77997,571.879673 1324.50614,574.137813 1335.79701,574.137813 C1364.02418,574.137813 1386.88785,561.153509 1404.38869,535.18451 C1421.88954,509.215512 1430.63983,474.214343 1430.63983,430.179954 C1430.63983,387.274653 1423.01861,353.684821 1407.77594,329.409453 C1392.53326,305.134085 1371.3632,292.996583 1344.26512,292.996583 L1303.61819,292.996583 L1303.61819,567.363326 Z M2589.72077,20.3234624 L2889.49184,1282.07175 L2508.42692,1282.07175 L2459.31188,1068.6754 L2179.86427,1068.6754 L2130.74924,1282.07175 L1751.37794,1282.07175 L2049.45539,20.3234624 L2589.72077,20.3234624 Z M2249.30277,770.59795 L2389.87338,770.59795 L2320.43489,462.35877 L2318.74127,462.35877 L2249.30277,770.59795 Z M3755.57619,133.796128 L3596.37573,579.218679 C3573.79399,567.92781 3549.23672,559.177518 3522.70318,552.96754 C3496.16964,546.757562 3469.35423,543.65262 3442.25614,543.65262 C3360.96189,543.65262 3320.31537,575.831113 3320.31537,640.189066 C3320.31537,705.676106 3363.78456,738.419134 3450.72425,738.419134 C3506.04951,738.419134 3554.59952,723.741225 3596.37573,694.384966 L3755.57619,1171.98633 C3712.67089,1210.37529 3658.47553,1241.70698 3592.98849,1265.98235 C3527.50145,1290.25771 3465.96714,1302.39522 3408.3837,1302.39522 C3264.98967,1302.39522 3149.54227,1241.42544 3062.03803,1119.48405 C2974.5338,997.54267 2930.78234,844.553692 2930.78234,660.512528 C2930.78234,466.309583 2976.2274,307.675255 3067.1189,184.604784 C3158.01039,61.5343125 3272.32873,0 3410.07733,0 C3471.04802,0 3533.14687,12.4197695 3596.37573,37.2596811 C3659.6046,62.0995927 3712.67089,94.2780864 3755.57619,133.796128 Z M4591.17534,20.3234624 L4591.17534,337.030752 L4257.53184,337.030752 L4257.53184,492.843964 L4489.55803,492.843964 L4489.55803,809.551253 L4257.53184,809.551253 L4257.53184,965.364465 L4591.17534,965.364465 L4591.17534,1282.07175 L3878.16054,1282.07175 L3878.16054,20.3234624 L4591.17534,20.3234624 Z M762.129841,1691.92825 L762.129841,2250.82346 L572.444191,2250.82346 L572.444191,2953.67654 L191.379271,2953.67654 L191.379271,2250.82346 L0,2250.82346 L0,1691.92825 L762.129841,1691.92825 Z M1721.36339,2321.95558 C1721.36339,2504.86766 1678.45874,2659.26797 1592.64813,2785.16116 C1506.83753,2911.05435 1402.96309,2974 1281.02171,2974 C1159.08032,2974 1055.48816,2910.77208 970.242096,2784.31435 C884.996036,2657.85662 842.373645,2503.73857 842.373645,2321.95558 C842.373645,2141.30168 884.713768,1987.74816 969.395285,1861.29043 C1054.0768,1734.8327 1157.95124,1671.60478 1281.02171,1671.60478 C1402.96309,1671.60478 1506.83753,1734.55043 1592.64813,1860.44362 C1678.45874,1986.33681 1721.36339,2140.17259 1721.36339,2321.95558 Z M1281.02171,2420.18565 C1304.73253,2420.18565 1325.05579,2408.04815 1341.9921,2383.77278 C1358.9284,2359.49741 1367.39642,2327.60118 1367.39642,2288.08314 C1367.39642,2249.69419 1359.49293,2218.08023 1343.68572,2193.24032 C1327.8785,2168.40041 1306.99071,2155.98064 1281.02171,2155.98064 C1256.1818,2155.98064 1235.85854,2168.40041 1220.05132,2193.24032 C1204.2441,2218.08023 1196.34062,2249.69419 1196.34062,2288.08314 C1196.34062,2327.60118 1204.52637,2359.49741 1220.89813,2383.77278 C1237.26989,2408.04815 1257.31088,2420.18565 1281.02171,2420.18565 Z M2630.43187,1691.92825 L2630.43187,2636.96925 L2964.07538,2636.96925 L2964.07538,2953.67654 L2251.06057,2953.67654 L2251.06057,1691.92825 L2630.43187,1691.92825 Z M3775.96383,1691.92825 L3775.96383,2008.63554 L3442.32032,2008.63554 L3442.32032,2164.44875 L3674.34652,2164.44875 L3674.34652,2481.15604 L3442.32032,2481.15604 L3442.32032,2636.96925 L3775.96383,2636.96925 L3775.96383,2953.67654 L3062.94902,2953.67654 L3062.94902,1691.92825 L3775.96383,1691.92825 Z M4611.56299,1691.92825 L4611.56299,2250.82346 L4421.87734,2250.82346 L4421.87734,2953.67654 L4040.81242,2953.67654 L4040.81242,2250.82346 L3849.43314,2250.82346 L3849.43314,1691.92825 L4611.56299,1691.92825 Z" id="SPACE-TO-LET" fill="#28282A" transform="translate(2305.781493, 1487.000000) rotate(-360.000000) translate(-2305.781493, -1487.000000) "></path>
    </g>
</svg>