<svg id="Layer_1" data-name="Layer 1" xmlns="http://www.w3.org/2000/svg" viewBox="0 0 892 507"><defs><style>.cls-1{fill:#ec1c24;}</style></defs><title>Artboard 2</title><path class="cls-1" d="M48.75,192.39Q26.91,175.16,26.91,142H51.27c0,34.44,28.84,45.36,52.36,45.36,28,0,43.68-12.87,43.68-31.63,0-8.4-3.36-15.13-10.08-19.89-6.72-5-18.2-10.63-34.72-16.79l-14-5C68.63,107,54.63,99.43,46,91.87S33.07,73.39,33.07,59.39c0-32.48,25.76-54,67.48-54,42.84,0,71.12,21.28,71.12,66.08H147.31c0-30-19.88-43.68-47-43.68-26,0-42.84,12.32-42.84,30,0,8.68,3.08,15.12,9,19.88s16.8,9.8,32.2,15.12l13.16,4.76c20.16,7.56,30.52,11.76,42.84,20.72,12.6,9,18.48,20.71,18.48,36.39,0,32.49-25.48,55.16-70.56,55.16C81.23,209.74,63.31,203.87,48.75,192.39Z"/><path class="cls-1" d="M211.15,205.55V9.55h82c33.6,0,54,23,54,59.08s-20.44,58.8-54,58.8H235.51v78.12Zm24.36-99.68H289c20.16,0,33.32-13.72,33.32-37.24,0-23.8-13.16-37.52-33.32-37.52H235.51Z"/><path class="cls-1" d="M355.91,205.55v-8.13L429,9.55h24.36l73.36,187.87v8.13H502.63L483,153.47H398.47l-20.16,52.08Zm49.84-72.81h69.72L440.75,42Z"/><path class="cls-1" d="M548,139.19V75.9c0-44.51,27.72-70.55,75-70.55,20.44,0,37.24,5.6,51,17.08s20.44,28,20.44,49.55v2.81H670.07V72q0-21.4-14.28-32.75a51,51,0,0,0-33-11.48c-32.76,0-50.4,17.08-50.4,46.48v66.64c0,29.39,17.64,46.47,50.4,46.47a51,51,0,0,0,33-11.47q14.28-11.34,14.28-32.76v-2.8h24.36v2.8c0,21.55-6.72,38.07-20.44,49.55s-30.52,17.08-51,17.08C575.71,209.74,548,183.71,548,139.19Z"/><path class="cls-1" d="M732.51,205.55V9.55H854.59V31.11H756.87v65h84.56v21.56H756.87V184h98v21.57Z"/><path class="cls-1" d="M59.26,506.55V332.11H-.38V310.55H143v21.56H83.61V506.55Z"/><path class="cls-1" d="M164.26,376.63c0-44,29.11-70.28,75.31-70.28s75.32,26.32,75.32,70.28v63.84c0,43.95-29.11,70.27-75.32,70.27s-75.31-26.32-75.31-70.27Zm126.27,64.95V375.51c0-28-18.75-46.76-51-46.76-32.47,0-51,18.76-51,46.76v66.07c0,28,18.49,46.76,51,46.76C271.78,488.34,290.53,469.58,290.53,441.58Z"/><path class="cls-1" d="M431.09,506.55v-196h24.36V485H555.69v21.57Z"/><path class="cls-1" d="M588.17,506.55v-196H710.25v21.56H612.53v65h84.56v21.56H612.53V485h98v21.57Z"/><path class="cls-1" d="M808.53,506.55V332.11H748.89V310.55H892.25v21.56H832.89V506.55Z"/></svg>