<svg id="Layer_1" data-name="Layer 1" xmlns="http://www.w3.org/2000/svg" viewBox="0 0 796 502"><defs><style>.cls-1{fill:#f05a28;}</style></defs><title>Artboard 3</title><path class="cls-1" d="M157.11,220.46a13.44,13.44,0,0,1-5.28,13.48,24,24,0,0,1-15.2,5.13H27.83a20.7,20.7,0,0,1-12.32-4A15.18,15.18,0,0,1,9,224.67q.32-7.68,0-8a111.94,111.94,0,0,1,2.24-12.16q4.49-16.63,20.48-16.64H98.23a17.42,17.42,0,0,0,11.84-4.48,14,14,0,0,0,5.12-10.88q0-7.68-6.24-13.44A20,20,0,0,0,95,153.31h-57q-4.8,0-10.24-3.83t-6.4-8.31a27.7,27.7,0,0,1-.32-4.47q0-3.19,6.4-50.13t10.56-69Q41.27-.29,59.19-.29h46.72q13.44,0,19.52,11.25a29.64,29.64,0,0,1,2.88,8.36q4.16,19.29,4.16,32.15a16.32,16.32,0,0,1-5,12.22,17,17,0,0,1-12.32,4.82h-32a20.94,20.94,0,0,0-14.08,5.6q-6.4,5.6-6.4,13.06a13.29,13.29,0,0,0,5.12,10.74,18.12,18.12,0,0,0,11.84,4.2h41.92q7.68,0,14.4,5.77,5.44,5.46,7,15.72Z"/><path class="cls-1" d="M305.91,137.27a17,17,0,0,1-17.27,17.32H231.7a19.34,19.34,0,0,0-14.08,6.08,23.74,23.74,0,0,0-7,14.4q-1.91,15-7.61,49a13,13,0,0,1-1.61,4.57q-5.77,11.1-16.37,11.1-12.52,0-15.09-13.32.32-8.12,0-8.44,1.28-7.68,5.77-38.72L197.43,25.31Q200.94-.3,220.15-.29h46.72q17.28,0,21.76,16.67,1.28,5.13,3.52,20.85Zm-41.6-49.53a17.6,17.6,0,0,0-6.24-13.69,20.87,20.87,0,0,0-14.24-5.54,20.15,20.15,0,0,0-13.92,5.7,17.77,17.77,0,0,0-6.24,13.53q0,15.65,20.16,15.65Q264.31,103.39,264.31,87.74Z"/><path class="cls-1" d="M456.31,224a15.37,15.37,0,0,1-4.63,10.82A14.33,14.33,0,0,1,441,239.71q-15.62,0-18.49-17-2-14.07-7.78-50.23,0-1-2.24-5.76a19.38,19.38,0,0,0-4.46-5.59c-2.34-2.24-4.26-3.57-5.74-4q-6.39-1.92-20.42-1.92-15.63,0-20.42,1.92-11.16,4.48-13.71,22.43-2.91,21.76-6.8,44.79a10.33,10.33,0,0,1-1.6,3.75q-5.79,11.59-16.72,11.59-11.25,0-15.11-12-1-2.83,0-9.14L335.34,26q.32-2.88,1.28-7.68Q339.5,6.44,348.46,2.59,353.91.36,365.1.35h33q11.83,0,15.36,1.28,7.68,2.88,12.48,13.12,1,2.23,2.56,13.44ZM401.91,87.88a17,17,0,0,0-6.24-13.24,20.56,20.56,0,0,0-13.92-5.49,20.35,20.35,0,0,0-14.08,5.49,17.2,17.2,0,0,0-6.08,13.24q0,7.44,6.72,12a24,24,0,0,0,13.44,3.56q14.72,0,19.52-11A14.58,14.58,0,0,0,401.91,87.88Z"/><path class="cls-1" d="M619.5,222.75a16.12,16.12,0,0,1-5.12,12,16.87,16.87,0,0,1-12.16,5h-112a20.4,20.4,0,0,1-12.16-4.17q-5.76-4.15-6.72-10.25.32-8,0-8.34.65-2.88,5.76-38.77L498.86,25q.64-5.11,4.16-14.72Q509.1-.29,522.22-.29h46.4q18.24,0,21.76,19.29,4.49,24.11,4.48,32.47a16.35,16.35,0,0,1-5,12.22,17,17,0,0,1-12.31,4.82h-32a18.86,18.86,0,0,0-15.34,7.58q-5.44,6.31-6.72,16.11Q521,112,516.87,141.48l-4.55,29.75a17.36,17.36,0,0,0,17.28,17.28h66.55a19.61,19.61,0,0,1,13.43,5.12,22.94,22.94,0,0,1,7.36,12.8Q619.5,218.91,619.5,222.75Z"/><path class="cls-1" d="M774.38,221.68a15.79,15.79,0,0,1-5.44,12.08,17.93,17.93,0,0,1-12.48,5l-106.56.32q-22.39,0-24-14.06c.21-5.11.21-7.78,0-8Q637.11,144.48,653.74,25q1.6-11.17,4.48-16Q664-.29,683.5-.29h40a15.06,15.06,0,0,0,4.16.64q6.08.32,11.84,6.4t5.76,12.16l4.48,31.68a15.34,15.34,0,0,1-5,12.16,17.16,17.16,0,0,1-12.32,5.12H700.14a20.36,20.36,0,0,0-13.92,5.6A17.28,17.28,0,0,0,680,86.75a13.78,13.78,0,0,0,5.28,10.88,17.61,17.61,0,0,0,11.68,4.48h42.24q22.73,0,22.72,34.56A16.95,16.95,0,0,1,744.62,154H688a20.79,20.79,0,0,0-13.92,5.39,16.58,16.58,0,0,0-6.24,13,13.77,13.77,0,0,0,5.12,10.78,17.12,17.12,0,0,0,11.52,4.44h66.88a19.2,19.2,0,0,1,13.44,5.31,23.93,23.93,0,0,1,7.36,13Q774.38,217.83,774.38,221.68Z"/><path class="cls-1" d="M97,313.55q-.65,12.79-10.24,15.68l-10.24,2.56q-5.44,1.27-9.28,6.88A19.91,19.91,0,0,0,63.35,350V483.47a18.26,18.26,0,0,1-5.12,12.64,16,16,0,0,1-12.16,5.6,15.28,15.28,0,0,1-12-5.76,19.14,19.14,0,0,1-5-12.8V350q0-13.44-12.8-17.92l-12.8-4.48q-7-4.49-7-14.08,0-7.68,4.16-32.32a38.94,38.94,0,0,1,2.24-6.72Q8,261.72,22.71,261.71h48q14.72,0,19.84,12.8,1.28,3.19,3.2,16.64Z"/><path class="cls-1" d="M245.11,482.51q.31,8.33-5.12,13.44a19.31,19.31,0,0,1-13.76,5.12H115.83a20.7,20.7,0,0,1-12.32-4,14.1,14.1,0,0,1-6.24-10.4q.32-7.68,0-8,1.28-8,5.76-38.72l21.76-153.28a59.54,59.54,0,0,1,3.52-13.27q5.12-11.68,19.2-11.69h47q16.32,0,21.12,16.29.32,1.61,1.92,11.83Zm-41.33-49.59-10.27-72q-.64-30.41-22.34-30.41-18.84,0-21.71,23.68-11.16,88.33-11.17,78.73a16.07,16.07,0,0,0,5.11,12,16.82,16.82,0,0,0,12.14,5h31a16.84,16.84,0,0,0,12.14-5A16.11,16.11,0,0,0,203.78,432.92Z"/><path class="cls-1" d="M332.47,482.51q0,10.56-6.08,15.68-4.49,3.53-8.32,3.52H281a12.48,12.48,0,0,1-10.56-5.12,19.69,19.69,0,0,1-3.84-12.16q4.47-39,19.84-174.72.64-6.4,2.56-23,.63-7.37,4.16-19.52,2.56-5.44,5.44-5.44,6.4,0,9.28,11.52,0,.64,1.92,13.44.64,3.52,2.88,24Z"/><path class="cls-1" d="M502.7,484.85a16,16,0,0,1-5.12,11.93,16.92,16.92,0,0,1-12.16,4.93H373.1a20.85,20.85,0,0,1-12.48-4.17,14.46,14.46,0,0,1-6.4-10.57q.31-7.7,0-8,1.27-8,5.77-39.09L382.07,286a73.59,73.59,0,0,1,3.2-13.27,23.09,23.09,0,0,1,6.56-7.42q4.64-3.63,8.49-3.63h2.25A19.34,19.34,0,0,1,407,263q9.93,3.46,9.93,16.35l-21.43,153.6a17,17,0,0,0,5.12,12.45,16.56,16.56,0,0,0,12.16,5.15h66.85a20.08,20.08,0,0,1,13.43,5.25,21,21,0,0,1,7.36,12.56Q502.7,480.08,502.7,484.85Z"/><path class="cls-1" d="M660.78,483.68a15.79,15.79,0,0,1-5.44,12.08,17.93,17.93,0,0,1-12.48,5l-106.56.32q-22.39,0-24-14.06c.21-5.11.21-7.78,0-8Q523.51,406.48,540.14,287q1.61-11.18,4.48-16,5.76-9.27,25.28-9.27h40a15.06,15.06,0,0,0,4.16.64q6.08.31,11.84,6.4t5.76,12.16l4.48,31.68a15.34,15.34,0,0,1-5,12.16,17.16,17.16,0,0,1-12.32,5.12H586.54a20.36,20.36,0,0,0-13.92,5.6,17.28,17.28,0,0,0-6.24,13.28,13.78,13.78,0,0,0,5.28,10.88,17.61,17.61,0,0,0,11.68,4.48h42.24q22.73,0,22.72,34.56A16.95,16.95,0,0,1,631,416H574.38a20.79,20.79,0,0,0-13.92,5.39,16.58,16.58,0,0,0-6.24,13,13.77,13.77,0,0,0,5.12,10.78,17.12,17.12,0,0,0,11.52,4.44h66.88a19.2,19.2,0,0,1,13.44,5.31,23.93,23.93,0,0,1,7.36,13Q660.78,479.83,660.78,483.68Z"/><path class="cls-1" d="M796.14,313.55q-.64,12.79-10.24,15.68l-10.24,2.56q-5.45,1.27-9.28,6.88A19.91,19.91,0,0,0,762.54,350V483.47a18.26,18.26,0,0,1-5.12,12.64,16,16,0,0,1-12.16,5.6,15.3,15.3,0,0,1-12-5.76,19.14,19.14,0,0,1-5-12.8V350q0-13.44-12.8-17.92l-12.8-4.48q-7-4.49-7-14.08,0-7.68,4.16-32.32a38.94,38.94,0,0,1,2.24-6.72q5.12-12.79,19.84-12.8h48q14.72,0,19.84,12.8,1.28,3.19,3.2,16.64Z"/></svg>