<svg id="Layer_1" data-name="Layer 1" xmlns="http://www.w3.org/2000/svg" viewBox="0 0 1548 502"><defs><style>.cls-1{fill:#2e3191;}</style></defs><title>Artboard 7</title><path class="cls-1" d="M640.12,4.84c.6-2.4,3.3-3.3,5.7-3.3H728c5.7,0,7.79,4.2,7.79,6.3v54.9a3.55,3.55,0,0,1-3.89,3.6H632.62c-1.2,0-2.7,0-3.3-1.5-9.9-17.1-42.6-21-52.2-21H485c-7.5,0-29.7.9-29.7,15,0,15,36,14.4,48,14.4l57.3.6c29.7,0,98.7,5.7,116.7,9.6,17.41,4.2,80.41,16.5,80.41,64.5,0,68.7-123.61,78.3-166.51,78.3h-81.3c-33.9,0-69.9-10.5-91.2-20.4l-1.8,17.4c-.6,2.4-2.4,3-4.5,3h-102c-2.1,0-3-1.2-3-3.6v-61.2a3.37,3.37,0,0,1,3.3-3.6h107.1a4.28,4.28,0,0,1,4.5,3.3c6,19.8,54.6,21,57.9,21h108.3c3.3,0,21.3-1.8,21.3-11.7,0-11.4-16.8-14.7-21-14.7l-87-.6c-23.1,0-92.4-7.2-120-15-49.2-14.1-72.9-41.7-72.9-63,0-30,32.7-47.7,49.2-56.4C378.82,9,419,1.24,467.62,1.24h82.5c41.7,0,70.8,10.2,86.1,17.1Z"/><path class="cls-1" d="M775.12,226.24c-2.1,0-3.6-1.8-3.6-4.2v-46.8c0-2.4,3.6-5.7,6.3-5.7h65.1V57.94h-68.4c-3,0-4.2-1.5-4.2-3v-51c0-2.4,3-2.7,5.1-2.7H1157c83.7,0,143.4,34.2,143.4,69.9,0,59.1-113.4,68.7-132.3,68.7H996.52v29.7h69.3c5.4,0,6.6,3,6.6,5.4v45.6c0,3.9-1.5,5.7-6.6,5.7Zm329.4-138.9c5.1,0,25.2-2.4,25.2-14.1,0-10.8-16.8-15.3-23.7-15.3H996.52v29.4Z"/><path class="cls-1" d="M239.17,506.24c-4.5,0-6.9-2.7-6.9-5.7v-43.8c0-2.7,1.8-4.5,4.8-4.5h50.7l-17.7-25.8h-93l-17.7,25.8h56.1c3.3,0,4.8,1.8,4.8,3.6v44.7c0,3.6-1.2,5.7-4.2,5.7h-204c-6.9,0-12-.6-12-4.8v-45.9c0-3.3,1.5-5.1,6-5.1h61.5L184,287.54c3-4.5,6.9-6.3,10.5-6.3h138c6,0,9.6,3.3,11.1,6.3l120.91,165.9h66.3c5.1,0,5.1,5.4,5.1,9.9v38.1c0,3.6-3,4.8-8.4,4.8Zm-42.9-107.4h53.4l-23.4-35.4c-.9-.9-3.9-.9-4.5,0Z"/><path class="cls-1" d="M989.17,407.24c2.7,0,5.7,1.8,4.2,4.8-4.8,9.3-22.2,94.2-208.2,94.2-191.4,0-239.1-57.6-239.1-108.3,0-50.4,49.5-116.7,212.7-116.7,59.1,0,95.4,10.5,126.3,27.3l2.1-19.8c.3-3.3,2.4-5.4,3.9-5.4h98.1c3.6,0,5.7,1.2,5.7,6.6v85.5c0,3-.9,4.8-4.5,5.4h-94.5c-2.7,0-3.3,0-5.7-2.7-2.1-2.7-23.1-40.2-88.2-40.2-65.4,0-78.9,37.8-78.9,54.6,0,13.2,7.2,57.9,88.2,57.9,65.1,0,94.2-29.1,102-41.1,1.2-1.8,3-2.1,5.7-2.1Z"/><path class="cls-1" d="M1530.67,281.24c5.4,0,6.9,2.1,6.9,6.6v85.5c0,3-.9,5.1-3.9,5.1h-103.2c-2.1,0-3.9,0-3.9-2.1v-37.8h-173.4V367h96.6c3,0,4.2.6,4.2,3v47.1c0,2.4-3.6,3-7.2,3h-93.6v30.3H1429v-36.6c0-2.7.9-6,5.7-6h109.8c2.1,0,3.3,1.5,3.3,5.7V502c0,2.1-1.2,4.2-6.9,4.2H1032.06c-3.9,0-7.5.3-7.5-3.3v-47.4c0-2.7,1.8-5.1,4.5-5.1h68.1V338.24h-68.4c-2.4,0-4.2.6-4.2-3v-51.3c0-1.5,3-2.7,7.5-2.7Z"/></svg>