<?xml version="1.0" encoding="UTF-8"?>
<svg width="4650px" height="2958px" viewBox="0 0 4650 2958" version="1.1" xmlns="http://www.w3.org/2000/svg" xmlns:xlink="http://www.w3.org/1999/xlink">
    <!-- Generator: Sketch 49.2 (51160) - http://www.bohemiancoding.com/sketch -->
    <title>SPACE TO LET</title>
    <desc>Created with Sketch.</desc>
    <defs></defs>
    <g id="Page-1" stroke="none" stroke-width="1" fill="none" fill-rule="evenodd">
        <path d="M0,1347.06043 L0,771.564263 L25.4204827,771.564263 C76.2614482,1156.43867 143.444153,1310.75153 250.57333,1310.75153 C328.650527,1310.75153 346.808014,1279.88895 346.808014,1154.62323 C346.808014,887.752764 5.4472463,600.912403 5.4472463,297.733033 C5.4472463,90.7722663 136.181157,0 230.600093,0 C294.1513,0 339.545019,36.3089065 370.412748,85.3259303 L463.015935,0 L482.989172,0 L482.989172,541.002707 L453.937192,541.002707 C388.570236,125.265727 328.650527,39.9397972 250.57333,39.9397972 C181.574877,39.9397972 167.048886,107.111274 167.048886,161.574634 C167.048886,390.320745 532.014388,731.624466 532.014388,1063.85096 C532.014388,1216.34837 444.858448,1347.06043 281.441059,1347.06043 C217.889852,1347.06043 157.970143,1323.45964 119.839419,1270.81173 L18.1574877,1347.06043 L0,1347.06043 Z M896.976259,43.6251799 L896.976259,732.051799 C1004.33522,732.051799 1022.53165,710.25465 1022.53165,594.003189 L1022.53165,148.978066 C1022.53165,49.0744671 993.41736,43.6251799 896.976259,43.6251799 Z M983.614727,1327.90791 L604.368345,1327.90791 L604.368345,1298.85095 L673.322233,1298.85095 L673.322233,43.9533658 L604.368345,43.9533658 L604.368345,14.8964029 L887.442199,14.8964029 C1092.48929,14.8964029 1244.91367,82.0906296 1244.91367,390.82086 C1244.91367,734.056235 1047.12489,761.297137 920.104567,761.297137 L896.515079,761.297137 L896.515079,1298.85095 L983.614727,1298.85095 L983.614727,1327.90791 Z M1392.2007,1327.90791 L1190.6482,1327.90791 L1190.6482,1298.85095 C1237.8587,1295.21883 1259.64815,1282.50641 1270.54288,1217.12824 L1481.17432,14.8964029 L1613.72686,14.8964029 L1793.4899,1298.85095 L1858.85827,1298.85095 L1858.85827,1327.90791 L1501.14799,1327.90791 L1501.14799,1298.85095 L1573.77952,1298.85095 L1546.5427,1059.13101 L1334.09547,1059.13101 L1310.49023,1240.73702 C1305.04286,1284.32247 1361.3323,1298.85095 1392.2007,1298.85095 L1392.2007,1327.90791 Z M1339.61223,1029.97986 L1540.71367,1029.97986 L1457.37433,377.730216 L1453.75088,377.730216 L1339.61223,1029.97986 Z M2465.65773,3.63089065 L2465.65773,542.818152 L2440.21462,542.818152 C2362.06796,85.3259303 2303.9123,34.4934612 2240.30455,34.4934612 C2207.59199,34.4934612 2196.68781,70.8023677 2196.68781,94.4031569 L2196.68781,1183.67035 C2196.68781,1278.07351 2220.31354,1307.12063 2269.38238,1307.12063 C2376.60687,1307.12063 2452.93618,1140.09966 2443.84935,795.165053 L2471.10982,795.165053 C2478.37928,1125.5761 2423.85835,1347.06043 2243.93928,1347.06043 C2040.39447,1347.06043 1969.51727,1103.79076 1969.51727,782.456935 L1969.51727,544.633598 C1969.51727,92.5877116 2105.81959,0 2220.31354,0 C2298.46021,0 2340.25959,39.9397972 2367.52005,108.92672 L2447.48408,3.63089065 L2465.65773,3.63089065 Z M3168.6777,1327.90791 L2549.41295,1327.90791 L2549.41295,1298.85095 L2618.42192,1298.85095 L2618.42192,43.9533658 L2549.41295,43.9533658 L2549.41295,14.8964029 L3168.6777,14.8964029 L3168.6777,512.496892 L3145.06936,512.496892 C3083.32449,151.100916 3050.63603,43.9533658 2936.22641,43.9533658 L2841.79308,43.9533658 L2841.79308,643.253225 C2934.41039,626.908684 2979.81103,568.794758 2992.52321,327.258754 L3017.94757,327.258754 L3017.94757,999.201021 L2997.97129,999.201021 C2972.54693,759.481077 2945.30654,681.390489 2841.79308,672.310188 L2841.79308,1298.85095 L2896.27385,1298.85095 C2990.70718,1298.85095 3032.47577,1277.05823 3083.32449,1077.29161 C3121.46103,926.558614 3132.35718,873.892868 3141.43731,797.618341 L3168.6777,797.618341 L3168.6777,1327.90791 Z M3.19208633,2185.93454 L3.19208633,1624.77194 L661.825899,1624.77194 L661.825899,2185.93454 L636.424044,2185.93454 C576.548243,1804.5619 518.48686,1652.01285 447.72455,1650.19678 L444.095713,1650.19678 L444.095713,2908.72649 L520.301278,2908.72649 L520.301278,2937.78345 L144.716707,2937.78345 L144.716707,2908.72649 L220.922272,2908.72649 L220.922272,1650.19678 L217.293436,1650.19678 C146.531126,1652.01285 88.4697426,1804.5619 28.5939414,2185.93454 L3.19208633,2185.93454 Z M1112.9741,2809.39265 L1112.9741,1774.07766 C1112.9741,1685.0769 1102.10375,1639.66835 1045.94029,1639.66835 C989.776823,1639.66835 978.906475,1685.0769 978.906475,1774.07766 L978.906475,2809.39265 C978.906475,2905.65878 997.023722,2929.27122 1045.94029,2929.27122 C1094.85685,2929.27122 1112.9741,2905.65878 1112.9741,2809.39265 Z M1045.40827,1610.93957 C1254.25676,1610.93957 1339.61223,1812.454 1339.61223,2284.46978 C1339.61223,2756.48557 1254.25676,2958 1045.40827,2958 C836.559786,2958 751.204317,2756.48557 751.204317,2284.46978 C751.204317,1812.454 836.559786,1610.93957 1045.40827,1610.93957 Z M3193.15036,2937.78345 L2570.69353,2937.78345 L2570.69353,2908.72649 L2639.65376,2908.72649 L2639.65376,1653.82891 L2570.69353,1653.82891 L2570.69353,1624.77194 L2939.08635,1624.77194 L2939.08635,1653.82891 L2862.86714,1653.82891 L2862.86714,2908.72649 L2922.75366,2908.72649 C3042.52669,2908.72649 3078.82155,2876.03741 3167.74396,2412.94206 L3193.15036,2412.94206 L3193.15036,2937.78345 Z M3903.92158,2937.78345 L3284.65683,2937.78345 L3284.65683,2908.72649 L3353.66581,2908.72649 L3353.66581,1653.82891 L3284.65683,1653.82891 L3284.65683,1624.77194 L3903.92158,1624.77194 L3903.92158,2122.37243 L3880.31325,2122.37243 C3818.56838,1760.97646 3785.87992,1653.82891 3671.4703,1653.82891 L3577.03696,1653.82891 L3577.03696,2253.12877 C3669.65427,2236.78422 3715.05491,2178.6703 3727.76709,1937.13429 L3753.19145,1937.13429 L3753.19145,2609.07656 L3733.21517,2609.07656 C3707.79081,2369.35662 3680.55043,2291.26603 3577.03696,2282.18573 L3577.03696,2908.72649 L3631.51773,2908.72649 C3725.95107,2908.72649 3767.71966,2886.93377 3818.56838,2687.16715 C3856.70492,2536.43415 3867.60107,2483.76841 3876.6812,2407.49388 L3903.92158,2407.49388 L3903.92158,2937.78345 Z M3991.17194,2185.93454 L3991.17194,1624.77194 L4649.80576,1624.77194 L4649.80576,2185.93454 L4624.4039,2185.93454 C4564.5281,1804.5619 4506.46672,1652.01285 4435.70441,1650.19678 L4432.07557,1650.19678 L4432.07557,2908.72649 L4508.28113,2908.72649 L4508.28113,2937.78345 L4132.69656,2937.78345 L4132.69656,2908.72649 L4208.90213,2908.72649 L4208.90213,1650.19678 L4205.27329,1650.19678 C4134.51098,1652.01285 4076.4496,1804.5619 4016.5738,2185.93454 L3991.17194,2185.93454 Z" id="SPACE-TO-LET" fill="#0067BC" transform="translate(2324.902878, 1479.000000) rotate(-360.000000) translate(-2324.902878, -1479.000000) "></path>
    </g>
</svg>